<svg width="206" height="161" viewBox="0 0 206 161" fill="none" xmlns="http://www.w3.org/2000/svg">
<path d="M131.51 41.1838C132.6 32.4938 137.01 35.2138 134.22 26.7038C133.06 23.2138 130.42 14.5138 128.17 11.3438C127.23 10.1138 126.4 6.40382 125.9 4.97383C125.4 3.54384 126.72 2.19383 127.72 1.04384C128.94 -0.37616 131.86 -0.196167 133.78 0.683838C135.7 1.56384 137.15 2.41383 137.63 2.86383C141.09 6.44383 143.85 9.96384 147.74 12.9938C150.67 15.2438 152.76 20.0038 156.12 21.7138C159.48 23.4238 159.13 21.2538 162.2 19.4238C165.27 17.5938 167.74 11.7938 169.81 8.93384C171.63 6.45384 172.85 5.90384 175.75 4.58383C178.65 3.26382 183.41 8.14384 184.52 11.0438C185.36 13.2738 180.2 20.0438 178.81 21.9838C173.25 30.0838 172.01 28.6738 173.5 38.4638C174.66 39.8038 177.72 40.7338 186.13 39.4438C191.19 38.6238 197.87 37.3938 202.48 39.7538C203.25 40.0138 204.45 41.0338 205.32 42.4738C206.19 43.9138 202.98 48.6038 201.61 49.4038C200.24 50.2038 195.43 50.9538 193.68 51.0538C186.51 51.3338 182.8 53.5538 179.45 54.2438C175.82 54.9938 173.87 57.5338 168.17 62.2938C163.05 66.6538 161.92 65.3338 156.83 69.7238C151.74 74.1138 151.45 73.7838 146.35 78.1738C141.25 82.5638 142.62 84.1438 137.52 88.5338C132.42 92.9238 132.601 92.2338 127.501 96.6338C122.401 101.034 124.431 104.064 119.501 108.634C116.481 112.084 108.73 110.924 105.89 114.674C103.05 118.424 102.79 124.254 99.4305 127.514C96.0705 130.774 91.5905 132.564 87.1505 134.644C83.3205 136.444 78.7305 137.314 73.5505 137.864C70.2705 141.294 67.7105 145.764 63.9905 148.334C60.2705 150.904 54.7705 150.854 50.5405 152.634C46.3105 154.414 42.7005 158.694 38.1605 159.634C33.6205 160.574 28.6605 157.924 24.0005 158.074C19.3405 158.224 14.9105 160.384 10.2605 159.834C2.61049 161.034 7.47047 158.904 0.000473022 155.934C8.15047 153.884 5.42049 152.174 6.67049 138.614C11.4405 137.644 14.6605 137.544 18.6205 136.224C23.2405 134.694 26.1505 129.964 29.8805 128.064C34.1505 125.884 37.8905 123.824 41.3405 121.304C45.1105 118.564 47.8805 115.154 51.1405 112.204C54.4005 109.254 59.4705 107.984 62.7905 104.934C66.1105 101.884 68.0005 97.1138 71.7105 94.3238C75.9705 91.7538 81.9405 92.3138 85.8105 89.9238C89.9905 87.3338 93.3805 83.7838 97.1705 81.1638C100.96 78.5438 104.21 74.7038 107.82 71.6338C111.43 68.5638 115.91 66.4738 119.2 62.8538C122.25 59.5038 123.91 54.7438 126.8 50.6438C127.26 49.9938 129.85 47.7638 129.76 46.9338C130.19 45.6638 131.16 42.2738 131.51 41.2238V41.1838Z" fill="white"/>
<path d="M133.271 45.7138C133.861 41.7838 137.211 37.2638 137.461 33.3338C137.711 29.4038 135.381 25.5238 134.381 21.6638C133.551 18.5338 132.291 15.8338 130.561 13.0238C129.841 11.9338 129.041 10.4838 128.681 9.19377C128.321 7.91377 129.661 6.33377 130.521 5.24377C131.571 3.90378 133.821 2.10378 135.351 2.83377C136.891 3.56377 138.001 5.54378 139.051 6.85378C141.761 9.98378 144.531 13.3438 147.611 15.9638C149.931 17.9038 151.251 21.7038 153.941 23.1338C156.631 24.5638 159.841 24.1938 162.411 22.4238C164.991 20.6538 167.351 18.2538 169.141 15.5738C170.711 13.2538 171.221 8.96376 173.641 7.67377C176.061 6.37376 180.501 8.69377 181.311 11.2838C181.921 13.2838 180.161 15.1138 178.951 16.9238C176.601 20.5938 173.491 23.1838 171.731 26.2538C169.861 29.5038 171.101 33.3438 171.551 37.8938C172.451 39.0638 179.531 42.4238 186.461 40.9538C190.631 40.0338 195.251 39.6538 198.941 41.6438C199.561 41.8538 199.311 43.6338 199.971 44.9138C200.631 46.1938 198.781 48.8838 197.631 49.6538C196.481 50.4238 187.891 48.6338 186.461 48.7838C180.371 49.3038 176.221 51.0438 172.311 52.0338C168.401 53.0238 165.681 56.0238 161.021 60.4038C155.411 65.6838 155.671 65.9638 150.061 71.2538C144.451 76.5338 144.541 76.6238 138.931 81.9138C133.321 87.2038 133.211 87.0838 127.601 92.3638C121.991 97.6438 119.701 95.2138 114.081 100.494C110.281 104.054 107.341 108.514 103.501 112.014C99.6608 115.514 96.9608 120.394 92.9608 123.704C88.9608 127.014 84.5908 130.044 80.3108 133.014C76.4708 135.674 71.4808 136.524 67.4308 138.804C63.3808 141.084 60.1408 145.124 55.9008 147.024C51.6608 148.924 46.3108 148.114 41.9108 149.594C37.5108 151.074 33.4708 153.804 28.9308 154.834C22.6308 156.194 15.6108 157.184 9.6008 154.734C10.8008 150.734 14.3108 147.984 17.0908 144.914C19.8708 141.844 22.4008 138.694 25.6408 136.264C29.3608 133.444 32.9308 130.464 36.7508 127.814C40.5708 125.164 44.8908 123.244 48.7808 120.694C52.6708 118.144 56.3108 115.214 60.2208 112.684C64.1308 110.154 67.5808 106.924 71.4708 104.364C75.3608 101.804 78.6808 98.4538 82.5008 95.7938C86.3508 93.1238 91.1908 91.8038 94.9408 88.9438C98.6908 86.0838 101.161 81.7438 104.721 78.6638C108.281 75.5838 113.491 74.2938 116.801 70.9538C120.111 67.6138 121.961 62.9238 124.951 59.2838C127.941 55.6438 132.491 53.1238 135.081 49.1738C135.481 48.5738 135.591 47.3938 135.551 46.6438C135.951 45.4738 139.441 54.6638 133.281 45.6938L133.271 45.7138Z" fill="black"/>
</svg>
