<svg width="206" height="161" viewBox="0 0 206 161" fill="none" xmlns="http://www.w3.org/2000/svg">
<path d="M131.51 41.1838C132.6 32.4938 137.01 35.2138 134.22 26.7038C133.06 23.2138 130.42 14.5138 128.17 11.3438C127.23 10.1138 126.4 6.40383 125.9 4.97383C125.4 3.54383 126.72 2.19384 127.72 1.04384C128.94 -0.376161 131.86 -0.196162 133.78 0.683838C135.7 1.56384 137.15 2.41383 137.63 2.86383C141.09 6.44383 143.85 9.96384 147.74 12.9938C150.67 15.2438 152.76 20.0038 156.12 21.7138C159.48 23.4238 159.13 21.2538 162.2 19.4238C165.27 17.5938 167.74 11.7938 169.81 8.93384C171.63 6.45384 172.85 5.90383 175.75 4.58383C178.65 3.26383 183.41 8.14384 184.52 11.0438C185.36 13.2738 180.2 20.0438 178.81 21.9838C173.25 30.0838 172.01 28.6738 173.5 38.4638C174.66 39.8038 177.72 40.7338 186.13 39.4438C191.19 38.6238 197.87 37.3938 202.48 39.7538C203.25 40.0138 204.45 41.0338 205.32 42.4738C206.19 43.9138 202.98 48.6038 201.61 49.4038C200.24 50.2038 195.43 50.9538 193.68 51.0538C186.51 51.3338 182.8 53.5538 179.45 54.2438C175.82 54.9938 173.87 57.5338 168.17 62.2938C163.05 66.6538 161.92 65.3338 156.83 69.7238C151.74 74.1138 151.45 73.7838 146.35 78.1738C141.25 82.5638 142.62 84.1438 137.52 88.5338C132.42 92.9238 132.601 92.2338 127.501 96.6338C122.401 101.034 124.431 104.064 119.501 108.634C116.481 112.084 108.73 110.924 105.89 114.674C103.05 118.424 102.79 124.254 99.4305 127.514C96.0705 130.774 91.5905 132.564 87.1505 134.644C83.3205 136.444 78.7305 137.314 73.5505 137.864C70.2705 141.294 67.7105 145.764 63.9905 148.334C60.2705 150.904 54.7705 150.854 50.5405 152.634C46.3105 154.414 42.7005 158.694 38.1605 159.634C33.6205 160.574 28.6605 157.924 24.0005 158.074C19.3405 158.224 14.9105 160.384 10.2605 159.834C2.61048 161.034 7.47047 158.904 0.000473022 155.934C8.15047 153.884 5.42049 152.174 6.67049 138.614C11.4405 137.644 14.6605 137.544 18.6205 136.224C23.2405 134.694 26.1505 129.964 29.8805 128.064C34.1505 125.884 37.8905 123.824 41.3405 121.304C45.1105 118.564 47.8805 115.154 51.1405 112.204C54.4005 109.254 59.4705 107.984 62.7905 104.934C66.1105 101.884 68.0005 97.1138 71.7105 94.3238C75.9705 91.7538 81.9405 92.3138 85.8105 89.9238C89.9905 87.3338 93.3805 83.7838 97.1705 81.1638C100.96 78.5438 104.21 74.7038 107.82 71.6338C111.43 68.5638 115.91 66.4738 119.2 62.8538C122.25 59.5038 123.91 54.7438 126.8 50.6438C127.26 49.9938 129.85 47.7638 129.76 46.9338C130.19 45.6638 131.16 42.2738 131.51 41.2238V41.1838Z" fill="white"/>
</svg>
