<svg width="191" height="154" viewBox="0 0 191 154" fill="none" xmlns="http://www.w3.org/2000/svg">
<path d="M123.669 43.0484C124.259 39.1184 127.609 34.5984 127.859 30.6684C128.109 26.7384 125.779 22.8584 124.779 18.9984C123.949 15.8684 122.689 13.1684 120.959 10.3584C120.239 9.26837 119.439 7.81837 119.079 6.52837C118.719 5.24837 120.059 3.66837 120.919 2.57837C121.969 1.23837 124.219 -0.561635 125.749 0.168365C127.289 0.898365 128.399 2.87837 129.449 4.18837C132.159 7.31837 134.929 10.6784 138.009 13.2984C140.329 15.2384 141.649 19.0384 144.339 20.4684C147.029 21.8984 150.239 21.5284 152.809 19.7584C155.389 17.9884 157.749 15.5884 159.539 12.9084C161.109 10.5884 161.619 6.29836 164.039 5.00836C166.459 3.70836 170.899 6.02836 171.709 8.61836C172.319 10.6184 170.559 12.4484 169.349 14.2584C166.999 17.9284 163.889 20.5184 162.129 23.5884C160.259 26.8384 161.499 30.6784 161.949 35.2284C162.849 36.3984 169.929 39.7584 176.859 38.2884C181.029 37.3684 185.649 36.9884 189.339 38.9784C189.959 39.1884 189.709 40.9684 190.369 42.2484C191.029 43.5284 189.179 46.2184 188.029 46.9884C186.879 47.7584 178.289 45.9684 176.859 46.1184C170.769 46.6384 166.619 48.3784 162.709 49.3684C158.799 50.3584 156.079 53.3584 151.419 57.7384C145.809 63.0184 146.069 63.2984 140.459 68.5884C134.849 73.8684 134.939 73.9584 129.329 79.2484C123.719 84.5384 123.609 84.4184 117.999 89.6984C112.389 94.9784 110.099 92.5484 104.479 97.8284C100.679 101.388 97.7392 105.848 93.8992 109.348C90.0592 112.848 87.3592 117.728 83.3592 121.038C79.3592 124.348 74.9892 127.378 70.7092 130.348C66.8692 133.008 61.8792 133.858 57.8292 136.138C53.7792 138.418 50.5392 142.458 46.2992 144.358C42.0592 146.258 36.7092 145.448 32.3092 146.928C27.9092 148.408 23.8692 151.138 19.3292 152.168C13.0292 153.528 6.00924 154.518 -0.000762939 152.068C1.19924 148.068 4.70924 145.318 7.48924 142.248C10.2692 139.178 12.7992 136.028 16.0392 133.598C19.7592 130.778 23.3292 127.798 27.1492 125.148C30.9692 122.498 35.2892 120.578 39.1792 118.028C43.0692 115.478 46.7092 112.548 50.6192 110.018C54.5292 107.488 57.9792 104.258 61.8692 101.698C65.7592 99.1384 69.0792 95.7884 72.8992 93.1284C76.7492 90.4584 81.5892 89.1384 85.3392 86.2784C89.0892 83.4184 91.5592 79.0784 95.1192 75.9984C98.6792 72.9184 103.889 71.6284 107.199 68.2884C110.509 64.9484 112.359 60.2584 115.349 56.6184C118.339 52.9784 122.889 50.4584 125.479 46.5084C125.879 45.9084 125.989 44.7284 125.949 43.9784C126.349 42.8084 129.839 51.9984 123.679 43.0284L123.669 43.0484Z" fill="black"/>
</svg>
