<svg width="407" height="370" viewBox="0 0 407 370" fill="none" xmlns="http://www.w3.org/2000/svg">
<path d="M328.02 153.374C325.541 150.25 323.139 146.891 322.132 143.923C320.893 140.252 324.766 136.347 325.308 133.223C325.928 129.396 324.999 125.334 326.935 122.913C329.801 119.242 333.907 118.149 336.153 119.32C340.104 121.273 336.463 120.96 330.111 119.711C327.245 119.164 323.837 118.695 320.351 118.149C316.865 117.602 313.611 117.914 310.513 117.836C306.485 117.758 302.922 116.586 300.83 117.836C297.344 119.945 294.788 122.522 293.471 125.412C291.999 128.693 292.697 132.598 292.387 135.957C292.077 139.706 290.528 143.377 290.218 147.126C289.908 150.875 289.676 154.624 289.366 158.373C289.056 162.122 287.119 165.715 286.732 169.464C286.345 173.213 287.197 177.04 286.887 180.789C286.5 184.694 289.366 187.037 290.063 189.302C290.992 192.27 293.161 194.067 294.401 197.035C295.33 199.3 293.781 202.971 294.091 206.798C294.323 209.844 296.105 213.281 296.027 217.03C296.027 220.232 295.175 223.669 294.943 227.261C294.788 230.62 295.795 234.135 295.563 237.571C295.33 241.008 295.098 244.445 294.866 247.803C294.633 251.318 293.161 254.676 292.929 257.879C292.697 261.628 293.626 264.986 293.626 267.954C293.626 271.391 289.83 274.749 289.753 278.186C289.676 281.623 293.084 285.059 293.084 288.496C293.084 291.932 290.837 295.291 290.76 298.728C290.683 302.164 292.929 305.601 292.929 309.037C292.929 312.474 290.76 315.976 290.76 319.413C290.76 322.85 290.683 326.277 290.76 329.713C290.837 333.15 291.69 336.482 291.844 339.919C291.999 343.355 292.232 346.606 292.464 350.043C292.697 353.479 291.535 356.994 291.844 360.353C292.154 363.711 291.38 363.526 291.844 366.963C295.485 367.588 300.411 365.445 303.432 365.992C307.15 366.617 310.758 365.523 313.702 365.992C317.498 366.539 324.611 365.68 327.632 365.992C331.196 366.383 337.836 365.914 341.089 365.992C344.343 366.07 350.019 364.219 353.66 364.141C356.681 364.063 357.834 364.297 361.63 364.141C364.651 363.985 364.681 364.297 368.477 364.141C371.575 363.985 371.605 364.219 375.324 364.141C378.345 364.063 375.039 362.618 376.589 360.353C378.293 357.853 372.69 357.752 375.324 352.363C376.95 348.926 375.851 343.625 371.9 342.141C369.189 341.126 368.539 340.045 365.053 339.889C361.568 339.733 360.995 339.264 358.207 339.889C353.559 339.342 352.507 340.826 347.936 339.889C346.155 339.577 344.265 339.906 341.089 338.734C337.604 337.406 338.286 340.296 337.666 338.734C336.349 335.454 336.928 335.2 335.998 331.92C335.069 328.639 331.516 328.542 330.819 325.105C330.122 321.668 327.706 314.913 327.396 311.476C327.086 308.039 327.473 304.769 327.396 301.254C327.318 297.74 327.163 294.547 327.396 291.033C327.628 287.518 329.724 287.733 330.111 284.218C330.498 280.703 327.167 276.233 327.632 272.797C328.097 269.36 329.569 266.002 330.111 262.565C330.653 259.128 329.646 255.379 330.266 251.943C330.886 248.506 332.048 245.069 332.59 241.711C333.132 238.352 333.674 234.759 334.139 231.323C334.604 227.886 335.688 224.372 335.998 221.013C336.308 217.654 333.674 213.827 333.752 210.469C333.829 207.11 335.224 203.986 335.069 200.862C334.914 197.503 334.139 194.301 333.984 191.255C333.829 187.818 336.231 184.616 336.463 181.57C336.695 178.211 336.928 175.243 338.09 172.432C339.639 168.683 339.019 164.309 337.238 160.716C335.611 157.514 333.597 153.843 331.196 150.718C328.794 147.594 325.153 145.329 323.759 142.127C322.132 138.534 320.583 134.473 322.442 130.645" fill="white"/>
<path d="M126.946 153.315C129.559 150.247 130.457 147.563 131.518 144.648C132.825 141.043 137.152 137.821 136.581 134.753C135.927 130.995 131.518 128.54 129.477 126.163C126.456 122.558 123.027 120.18 120.659 121.33C116.494 123.248 120.332 122.021 127.027 120.793C130.048 120.257 133.641 119.413 137.397 118.876C141.153 118.339 144.664 117.342 147.93 117.265C152.176 117.188 155.932 119.106 158.136 120.333C161.811 122.404 163.525 125.242 164.913 128.157C166.465 131.378 168.016 134.6 168.343 137.975C168.669 141.656 167.853 145.415 168.261 149.097C168.669 152.778 169.159 156.46 169.567 160.142C169.976 163.823 168.669 167.659 168.996 171.34C169.323 175.022 170.956 178.627 171.364 182.309C171.772 186.144 173.977 189.289 173.16 191.59C172.18 194.504 171.282 197.189 169.976 200.104C168.996 202.328 165.648 204.015 165.322 207.774C165.077 210.765 166.873 214.063 166.955 217.745C166.955 220.89 166.465 224.265 166.71 227.716C166.873 231.015 168.506 234.236 168.751 237.611C168.996 240.986 169.404 244.361 169.649 247.582C169.894 251.034 168.914 254.562 169.078 257.707C169.323 261.389 170.547 264.84 170.547 267.755C170.547 271.13 166.628 274.505 166.71 277.88C166.791 281.255 170.466 284.553 170.547 287.928C170.629 291.303 168.424 294.677 168.506 298.052C168.588 301.427 171.037 304.725 171.119 308.1C171.201 311.475 170.139 314.85 170.139 318.225C170.139 321.6 171.282 324.975 171.201 328.35C171.119 331.725 167.118 335.023 167.036 338.398C166.955 341.773 169.323 345.224 169.078 348.599C168.833 351.974 167.2 355.196 166.873 358.57C166.546 361.945 164.415 363.125 164.007 366.5C160.169 367.114 159.191 367.463 156.007 368C152.088 368.614 150.691 368.54 147.507 369C143.506 369.537 141.191 367.693 138.007 368C134.251 368.384 131.936 368.923 128.507 369C125.078 369.077 120.844 369.476 117.007 369.399C113.822 369.323 112.296 367.621 108.295 367.468C105.11 367.315 102.025 369.553 98.0245 369.399C94.7584 369.246 91.5918 369.153 87.7542 369C84.3291 368 83.5582 365.224 82.0068 363C80.2105 360.546 83.6819 364.393 80.9057 359.178C79.1911 355.803 80.2466 350.413 84.3291 348.956C87.1869 347.959 83.9982 345.779 87.7542 345.549C91.5101 345.318 95.085 344.935 98.0245 345.549C102.924 345.012 103.477 345.531 108.295 344.611C110.173 344.304 111.712 343.369 115.142 342.141C118.816 340.837 124.759 340.191 125.412 338.734C126.8 335.513 128.579 337.784 129.559 334.563C130.538 331.341 131.518 327.736 132.253 324.361C132.988 320.986 131.763 317.228 132.09 313.853C132.416 310.478 130.702 306.95 130.783 303.498C130.865 300.047 131.437 296.672 131.273 293.297C131.11 289.922 129.477 286.624 129.069 283.172C128.66 279.721 130.947 276.039 130.457 272.664C129.967 269.289 130.375 265.684 129.804 262.309C129.232 258.934 126.864 255.713 126.293 252.415C125.721 249.116 125.639 245.511 124.986 242.136C124.333 238.762 123.761 235.31 123.19 231.935C122.618 228.56 122.782 225.032 122.455 221.657C122.128 218.282 118.699 214.907 118.617 211.532C118.536 208.234 120.087 204.936 120.25 201.944C120.414 198.646 120.005 195.425 120.25 192.433C120.414 189.058 123.108 185.914 122.945 182.999C122.7 179.701 121.802 176.479 120.577 173.641C118.944 169.96 120.087 167.045 121.965 163.517C123.68 160.372 126.701 157.841 129.232 154.773C131.763 151.704 132.988 147.639 134.539 144.418C136.254 140.889 135.682 137.745 133.723 133.986" fill="white"/>
<path d="M228.114 49.1179L221.713 33.9717L207.313 21.0164L193.366 7.62924L175.272 0H145.952L128.835 4.82357L111.718 4.82388L91.1775 11.6384L77.4838 25.2674L70.637 35.4891L63.7901 49.1181L60.3667 62.7471L46.6748 76.3761L53.521 93.4123L56.9445 110.449L53.5217 124.078L57.0598 139.198L67.2153 154.743L70.1024 173.025L75.4551 191.307L89.6286 204.19L100.636 219.089L111.19 234.563L125.816 246.583L140.668 258.674L153.258 272.997L166.602 286.528L184.093 295.741L198.267 308.408L210.329 323.739L227.744 335.327L245.232 321.698L258.925 311.476L271.697 298.116L287.644 286.528L299.29 273.285L315.876 263.569L327.394 246.738L342.263 237.37L350.707 220.384L359.678 204.334L374.078 192.027L383.728 176.48L396.695 162.517L398.73 143.516L405.968 127.034L406.345 108.969L406.132 93.4121V76.3759L399.286 59.3396L389.015 45.7107L382.169 35.4889L368.475 21.8599L354.781 11.6382L336.382 3.88659H317.123L300.006 8.23094L279.466 11.6382L262.349 15.0454L248.655 21.8599L239.236 33.9717L228.114 49.1179Z" fill="white"/>
<path d="M73.9573 243.95C72.8673 252.64 68.4573 249.92 71.2473 258.43C72.4073 261.92 75.0473 270.62 77.2973 273.79C78.2373 275.02 79.0673 278.73 79.5673 280.16C80.0673 281.59 78.7473 282.94 77.7473 284.09C76.5273 285.51 73.6073 285.33 71.6873 284.45C69.7673 283.57 68.3173 282.72 67.8373 282.27C64.3773 278.69 61.6173 275.17 57.7273 272.14C54.7973 269.89 52.7073 265.13 49.3473 263.42C45.9873 261.71 46.3373 263.88 43.2673 265.71C40.1973 267.54 37.7273 273.34 35.6573 276.2C33.8373 278.68 32.6173 279.23 29.7173 280.55C26.8173 281.87 22.0573 276.99 20.9473 274.09C20.1073 271.86 25.2673 265.09 26.6573 263.15C32.2173 255.05 33.4573 256.46 31.9673 246.67C30.8073 245.33 27.7473 244.4 19.3373 245.69C14.2773 246.51 7.5973 247.74 2.9873 245.38C2.2173 245.12 1.0173 244.1 0.147301 242.66C-0.722699 241.22 2.4873 236.53 3.8573 235.73C5.2273 234.93 10.0373 234.18 11.7873 234.08C18.9573 233.8 22.6673 231.58 26.0173 230.89C29.6473 230.14 31.5973 227.6 37.2973 222.84C42.4173 218.48 43.5473 219.8 48.6373 215.41C53.7273 211.02 54.0173 211.35 59.1173 206.96C64.2173 202.57 62.8473 200.99 67.9473 196.6C73.0473 192.21 75.9068 187.4 81.0068 183C86.1068 178.6 84.0473 184.37 88.9773 179.8C91.9973 176.35 96.7373 174.21 99.5773 170.46C102.417 166.71 102.677 160.88 106.037 157.62C109.397 154.36 113.877 152.57 118.317 150.49C122.147 148.69 126.737 147.82 131.917 147.27C135.197 143.84 137.757 139.37 141.477 136.8C145.197 134.23 150.697 134.28 154.927 132.5C159.157 130.72 162.767 126.44 167.307 125.5C171.847 124.56 176.807 127.21 181.467 127.06C186.127 126.91 190.557 124.75 195.207 125.3C202.857 124.1 197.997 126.23 205.467 129.2C197.317 131.25 200.047 132.96 198.797 146.52C194.027 147.49 190.807 147.59 186.847 148.91C182.227 150.44 179.317 155.17 175.587 157.07C171.317 159.25 167.577 161.31 164.127 163.83C160.357 166.57 157.587 169.98 154.327 172.93C151.067 175.88 145.997 177.15 142.677 180.2C139.357 183.25 137.467 188.02 133.757 190.81C129.497 193.38 123.527 192.82 119.657 195.21C115.477 197.8 112.087 201.35 108.297 203.97C104.507 206.59 101.257 210.43 97.6473 213.5C94.0373 216.57 89.5573 218.66 86.2673 222.28C83.2173 225.63 81.5573 230.39 78.6673 234.49C78.2073 235.14 75.6173 237.37 75.7073 238.2C75.2773 239.47 74.3073 242.86 73.9573 243.91V243.95Z" fill="white"/>
<path d="M253.272 120.909C249.504 122.064 260.564 147.623 256.935 148.324C253.376 149.003 240.617 130.513 237.243 132.804C234.852 134.447 228.329 131.951 225.48 132.804C221.347 134.042 217.131 131.029 213.731 134.651C212.32 136.14 210.715 137.57 209.577 139.208C207.681 142.076 206.077 145.131 204.79 148.324C203.519 151.433 201.245 154.148 200.874 157.642C200.775 158.518 199.356 158.234 199.447 159.321C200.65 163.146 201.07 167.379 203.676 170.707C205.506 173.04 206.644 175.83 209.342 177.544C210.665 178.517 212.248 179.063 213.887 179.112C216.887 179.082 219.843 179.191 222.746 180.168C227.045 181.639 231.449 182.839 235.772 184.231C236.871 184.59 237.948 184.813 238.932 185.892C240.349 187.494 242.574 186.254 244.41 186.213C249.682 186.103 254.791 184.863 259.934 183.72C260.682 183.602 261.393 183.301 262.005 182.844C264.754 180.447 267.668 178.274 270.919 176.594C273.387 175.321 275.772 173.698 277.73 171.945C280.908 169.118 283.824 165.693 284.508 161.107C284.576 160.61 284.251 160.078 284.106 159.515C285.087 159.427 285.658 159.43 285.7 160.609C285.881 164.791 286.468 168.967 284.855 173.052C284.025 175.03 283.659 177.174 283.785 179.312C283.9 181.356 282.807 183.332 282.759 185.564C282.67 188.345 281.817 191.474 279.257 193.324C278.034 194.201 278.173 195.475 277.603 196.575C273.239 198.843 269.086 201.737 264.232 202.839C258.252 204.222 252.18 205.145 246.196 206.333C243.733 206.829 241.337 207.865 238.905 207.983C235.798 208.087 232.801 208.593 229.854 209.352C226.977 210.089 223.992 209.173 221.172 210.143C220.904 210.255 220.515 210.417 220.333 210.318C218.519 209.113 216.363 210.266 214.582 209.503C210.567 207.795 206.432 207.865 202.191 208.141C196.751 208.523 191.18 206.705 186.254 204.026C183.944 202.777 181.238 202.335 178.705 201.536C177.406 201.137 176.109 200.804 175.3 199.497C173.546 196.712 170.201 196.139 167.783 194.273C164.445 191.672 160.939 189.343 158.003 186.26C156.601 184.814 154.645 183.933 153.192 182.515C149.018 178.49 145.665 173.724 142.294 169.017C141.773 168.295 141.342 167.558 140.68 166.88C138.412 164.455 137.98 161.298 138.015 158.069C138.021 157.704 137.931 157.654 138.227 157.378C141.311 154.652 143.802 150.881 148.337 150.545C150.019 150.455 151.627 149.792 152.901 148.662C156.084 145.751 160.126 144.464 163.668 142.246C163.801 142.158 163.947 142.029 164.075 142.026C170.461 141.739 174.8 137.131 179.858 134.19C187.755 129.594 191.539 129.286 197.14 127.549C202.204 125.971 207.397 124.735 212.549 123.768C219.366 122.491 226.17 120.496 233.227 120.719C238.981 118.618 244.88 120.753 250.668 120.132C251.502 120.042 252.405 120.622 253.278 120.89L253.272 120.909Z" fill="white"/>
<path d="M196.558 133.102C200.38 134.065 201.671 133.513 205.33 134.028C208.919 134.526 208.004 129.602 211.489 131.719C213.96 133.238 226.602 123.372 229.491 124.08C233.68 125.106 235.32 126.356 238.9 129.801C240.384 131.217 238.963 134.169 240.183 135.747C242.221 138.516 247.074 139.879 248.521 143.003C249.948 146.044 254.34 146.992 254.887 150.462C255.03 151.333 254.45 152.625 254.414 153.715C253.406 157.596 253.201 161.846 250.766 165.301C249.057 167.724 248.062 170.568 245.454 172.417C244.182 173.456 242.629 174.081 240.994 174.213C237.997 174.335 235.049 174.593 232.2 175.717C227.981 177.404 223.644 178.826 219.396 180.435C218.317 180.849 217.253 181.126 216.325 182.254C214.99 183.926 212.705 182.801 210.869 182.852C205.599 183.01 200.434 182.03 195.24 181.15C194.486 181.069 193.761 180.805 193.127 180.379C190.26 178.125 187.24 176.103 183.908 174.589C181.379 173.443 178.915 171.943 176.87 170.291C173.554 167.63 170.468 164.356 169.552 159.812C169.46 159.318 169.757 158.77 169.874 158.201C168.889 158.163 168.319 158.195 168.337 159.374C168.367 163.56 167.993 167.76 169.81 171.758C170.739 173.692 171.214 175.814 171.196 177.956C171.184 180.003 175.542 180.36 175.703 182.586C175.932 185.359 176.844 185.981 179.495 187.699C180.761 188.513 182.457 189.1 183.082 190.169C187.555 192.213 188.859 195.517 193.763 196.372C199.805 197.45 204.068 202.154 210.104 203.037C212.59 203.408 215.035 204.321 217.47 204.315C220.578 204.262 223.597 204.615 226.578 205.224C229.489 205.814 232.423 204.748 235.29 205.574C235.563 205.672 235.959 205.814 236.136 205.706C237.887 204.41 240.099 205.452 241.838 204.6C245.762 202.691 249.895 202.551 254.144 202.611C259.597 202.717 265.069 200.619 269.853 197.694C272.097 196.33 274.777 195.751 277.266 194.825C278.543 194.361 279.822 193.962 280.563 192.616C282.175 189.745 285.486 189.003 287.807 187.018C291.008 184.25 294.392 181.746 297.168 178.519C298.495 177.004 300.404 176.024 301.783 174.534C305.748 170.303 308.856 165.373 311.984 160.501C312.468 159.754 312.861 158.996 313.488 158.285C315.63 155.749 315.902 152.574 315.703 149.351C315.679 148.986 315.767 148.932 315.457 148.671C312.239 146.105 309.56 142.465 305.013 142.359C303.33 142.355 301.69 141.774 300.36 140.71C297.034 137.964 292.933 136.884 289.282 134.849C289.145 134.767 288.993 134.646 288.865 134.649C282.473 134.687 277.906 130.304 272.706 127.623C264.586 123.433 262.661 122.363 256.98 120.912C251.842 119.593 244.855 117.64 239.66 116.935C232.787 116.005 218.254 121.899 211.218 122.479C205.364 120.673 201.858 143.651 196.045 143.324C195.208 143.277 190.247 159.543 193.323 135.722L196.558 133.102Z" fill="white"/>
</svg>
