<svg width="394" height="360" viewBox="0 0 394 360" fill="none" xmlns="http://www.w3.org/2000/svg">
<path d="M320.964 160.982C318.773 158.256 316.65 155.326 315.76 152.736C314.665 149.533 318.088 146.126 318.567 143.4C319.115 140.061 318.293 136.518 320.005 134.405C322.538 131.202 326.167 130.248 328.153 131.27C331.645 132.974 328.427 132.701 322.812 131.611C320.279 131.134 317.266 130.725 314.185 130.248C311.104 129.771 308.229 130.044 305.49 129.976C301.929 129.908 298.78 128.885 296.931 129.976C293.85 131.816 291.591 134.064 290.427 136.586C289.126 139.448 289.742 142.855 289.468 145.785C289.194 149.056 287.825 152.259 287.551 155.53C287.277 158.801 287.072 162.072 286.798 165.343C286.524 168.614 284.812 171.749 284.47 175.019C284.128 178.29 284.881 181.63 284.607 184.901C284.265 188.308 286.798 190.352 287.414 192.328C288.236 194.918 290.153 196.485 291.248 199.075C292.07 201.051 290.701 204.254 290.974 207.593C291.18 210.25 292.755 213.249 292.686 216.52C292.686 219.314 291.933 222.312 291.728 225.447C291.591 228.377 292.481 231.444 292.275 234.442C292.07 237.44 291.865 240.439 291.659 243.369C291.454 246.435 290.153 249.366 289.947 252.16C289.742 255.431 290.564 258.361 290.564 260.95C290.564 263.949 287.209 266.879 287.14 269.877C287.072 272.876 290.084 275.874 290.084 278.872C290.084 281.871 288.099 284.801 288.03 287.799C287.962 290.798 289.947 293.796 289.947 296.794C289.947 299.793 288.989 302.723 288.989 305.721C288.989 308.72 289.947 311.65 290.016 314.648C290.084 317.647 286.798 320.713 286.935 323.712C287.072 326.71 289.331 329.572 289.537 332.571C289.742 335.569 288.715 338.635 288.989 341.566C289.263 344.496 288.852 348.517 289.263 351.515C292.481 352.06 296.726 349.879 299.396 350.356C302.683 350.902 305.558 351.447 308.16 351.856C311.515 352.333 314.117 354.581 316.787 354.854C319.937 355.195 322.881 355.127 325.756 355.195C328.632 355.263 331.371 353.014 334.589 352.946C337.259 352.878 340.272 355.535 343.627 355.399C346.297 355.263 349.173 353.559 352.528 353.423C355.266 353.287 358.211 352.128 361.497 352.06C364.167 351.992 367.454 354.445 368.823 352.469C370.329 350.288 365.194 347.699 367.522 342.997C368.96 339.998 367.865 339.59 364.373 338.295C361.976 337.409 359.374 333.593 356.293 333.456C353.212 333.32 349.857 335.978 347.393 336.523C343.284 336.046 343.284 335.773 339.245 334.956C337.67 334.683 335 332.639 332.192 331.617C329.111 330.458 327.605 329.095 327.057 327.732C325.893 324.87 324.593 322.213 323.771 319.35C322.949 316.488 322.333 313.558 321.717 310.56C321.101 307.561 319.32 304.767 319.047 301.769C318.773 298.771 316.993 295.704 316.924 292.638C316.856 289.571 317.472 286.436 317.677 283.37C317.883 280.303 316.924 277.101 317.266 274.034C317.609 270.968 320.21 268.174 320.621 265.175C321.032 262.177 322.333 259.247 322.812 256.248C323.292 253.25 322.401 249.979 322.949 246.981C323.497 243.982 324.524 240.984 325.003 238.054C325.483 235.123 325.962 231.989 326.373 228.99C326.783 225.992 327.742 222.925 328.016 219.995C328.29 217.065 325.962 213.726 326.03 210.796C326.099 207.865 327.331 205.14 327.194 202.414C327.057 199.484 326.373 196.69 326.236 194.032C326.099 191.034 328.221 188.24 328.427 185.582C328.632 182.652 328.838 180.062 329.865 177.609C331.234 174.338 330.686 170.522 329.111 167.387C327.674 164.593 325.893 161.39 323.771 158.665C321.648 155.939 318.43 153.963 317.198 151.169C315.76 148.034 314.391 144.491 316.034 141.151" fill="black"/>
<path d="M126.19 161.506C128.381 158.78 129.134 156.395 130.024 153.805C131.12 150.602 134.749 147.74 134.269 145.015C133.722 141.676 130.024 139.495 128.313 137.382C125.779 134.18 122.904 132.067 120.918 133.089C117.426 134.793 120.644 133.703 126.259 132.612C128.792 132.135 131.805 131.386 134.954 130.909C138.104 130.432 141.048 129.546 143.787 129.478C147.347 129.409 150.497 131.113 152.345 132.203C155.426 134.043 156.864 136.565 158.028 139.154C159.329 142.016 160.63 144.878 160.904 147.877C161.178 151.148 160.493 154.487 160.835 157.758C161.178 161.029 161.588 164.3 161.931 167.571C162.273 170.842 161.178 174.249 161.451 177.52C161.725 180.791 163.095 183.994 163.437 187.264C163.779 190.672 165.628 193.466 164.943 195.51C164.122 198.1 163.369 200.485 162.273 203.074C161.451 205.05 158.644 206.55 158.37 209.889C158.165 212.546 159.671 215.476 159.74 218.747C159.74 221.541 159.329 224.54 159.534 227.606C159.671 230.537 161.041 233.399 161.246 236.397C161.451 239.395 161.794 242.394 161.999 245.256C162.205 248.322 161.383 251.457 161.52 254.251C161.725 257.522 162.752 260.588 162.752 263.178C162.752 266.176 159.466 269.175 159.534 272.173C159.603 275.171 162.684 278.102 162.752 281.1C162.821 284.098 160.972 287.097 161.041 290.095C161.109 293.094 163.163 296.024 163.232 299.022C163.3 302.021 162.41 305.019 162.41 308.017C162.41 311.016 163.369 314.014 163.3 317.012C163.232 320.011 159.877 322.941 159.808 325.939C159.74 328.938 161.725 332.004 161.52 335.003C161.315 338.001 159.945 340.863 159.671 343.862C159.397 346.86 158.37 348.768 158.028 351.766C154.81 352.312 153.235 355.514 150.565 355.991C147.279 356.537 144.334 356.877 141.664 357.286C138.309 357.763 135.16 356.264 132.489 356.537C129.34 356.877 126.464 357.286 123.588 357.354C120.713 357.422 117.837 359.603 114.619 359.535C111.949 359.467 109.142 356.537 105.787 356.4C103.116 356.264 100.104 357.763 96.7488 357.627C94.01 357.491 90.9974 358.445 87.7794 358.308C85.1091 358.24 80.9326 357.491 79.6317 355.514C78.1254 353.334 81.6857 351.289 79.3578 346.656C77.92 343.657 80.7272 339.773 84.1506 338.478C86.547 337.592 90.1758 340.318 93.3254 340.114C96.4749 339.909 99.4875 337.729 101.952 338.274C106.06 337.797 105.924 337.252 109.963 336.434C111.538 336.161 114.893 336.502 117.769 335.412C120.85 334.253 125.095 332.754 125.642 331.459C126.806 328.597 127.56 325.394 128.381 322.532C129.203 319.67 130.024 316.467 130.641 313.469C131.257 310.471 130.23 307.131 130.504 304.133C130.778 301.135 129.34 298 129.408 294.933C129.477 291.867 129.956 288.869 129.819 285.87C129.682 282.872 128.313 279.942 127.97 276.875C127.628 273.809 129.545 270.538 129.134 267.539C128.724 264.541 129.066 261.338 128.587 258.34C128.107 255.341 126.122 252.479 125.642 249.549C125.163 246.619 125.095 243.416 124.547 240.418C123.999 237.419 123.52 234.353 123.041 231.354C122.561 228.356 122.698 225.221 122.424 222.223C122.151 219.224 119.275 216.226 119.206 213.228C119.138 210.297 120.439 207.367 120.576 204.71C120.713 201.779 120.37 198.917 120.576 196.26C120.713 193.261 122.972 190.467 122.835 187.878C122.63 184.948 121.877 182.085 120.85 179.564C119.48 176.293 120.439 173.704 122.014 170.569C123.451 167.775 125.985 165.526 128.107 162.8C130.23 160.075 131.257 156.463 132.558 153.601C133.996 150.466 133.516 147.672 131.873 144.333" fill="black"/>
<path d="M66.8386 231.189C66.2486 235.119 62.8986 239.639 62.6486 243.569C62.3986 247.499 64.7286 251.379 65.7286 255.239C66.5586 258.369 67.8186 261.069 69.5486 263.879C70.2686 264.969 71.0686 266.419 71.4286 267.709C71.7886 268.989 70.4486 270.569 69.5886 271.659C68.5386 272.999 66.2886 274.799 64.7586 274.069C63.2186 273.339 62.1086 271.359 61.0586 270.049C58.3486 266.919 55.5786 263.559 52.4986 260.939C50.1786 258.999 48.8586 255.199 46.1686 253.769C43.4786 252.339 40.2686 252.709 37.6986 254.479C35.1186 256.249 32.7586 258.649 30.9686 261.329C29.3986 263.649 28.8886 267.939 26.4686 269.229C24.0486 270.529 19.6086 268.209 18.7986 265.619C18.1886 263.619 19.9486 261.789 21.1586 259.979C23.5086 256.309 26.6186 253.719 28.3786 250.649C30.2486 247.399 29.0086 243.559 28.5586 239.009C27.6586 237.839 20.5786 234.479 13.6486 235.949C9.47857 236.869 4.85857 237.249 1.16857 235.259C0.548568 235.049 0.798568 233.269 0.138568 231.989C-0.521432 230.709 1.32857 228.019 2.47857 227.249C3.62857 226.479 12.2186 228.269 13.6486 228.119C19.7386 227.599 23.8886 225.859 27.7986 224.869C31.7086 223.879 34.4286 220.879 39.0886 216.499C44.6986 211.219 44.4386 210.939 50.0486 205.649C55.6586 200.369 55.5686 200.279 61.1786 194.989C66.7886 189.699 66.8986 189.819 72.5086 184.539C78.1186 179.259 80.4086 181.689 86.0286 176.409C89.8286 172.849 92.7686 168.389 96.6086 164.889C100.449 161.389 103.149 156.509 107.149 153.199C111.149 149.889 115.519 146.859 119.799 143.889C123.639 141.229 128.629 140.379 132.679 138.099C136.729 135.819 139.969 131.779 144.209 129.879C148.449 127.979 153.799 128.789 158.199 127.309C162.599 125.829 166.639 123.099 171.179 122.069C177.479 120.709 184.499 119.719 190.509 122.169C189.309 126.169 185.799 128.919 183.019 131.989C180.239 135.059 177.709 138.209 174.469 140.639C170.749 143.459 167.179 146.439 163.359 149.089C159.539 151.739 155.219 153.659 151.329 156.209C147.439 158.759 143.799 161.689 139.889 164.219C135.979 166.749 132.529 169.979 128.639 172.539C124.749 175.099 121.429 178.449 117.609 181.109C113.759 183.779 108.919 185.099 105.169 187.959C101.419 190.819 98.9486 195.159 95.3886 198.239C91.8286 201.319 86.6186 202.609 83.3086 205.949C79.9986 209.289 78.1486 213.979 75.1586 217.619C72.1686 221.259 67.6186 223.779 65.0286 227.729C64.6286 228.329 64.5186 229.509 64.5586 230.259C64.1586 231.429 60.6686 222.239 66.8286 231.209L66.8386 231.189Z" fill="black"/>
<path d="M225.427 56.9692L219.881 37.2753L206.804 25.0092L194.137 12.3342L177.705 5.11087L160.588 0.13629L142.854 0L125.326 1.02217L108.62 6.54191L91.5031 12.0617L79.3841 25.2818L67.1283 38.0249L63.3625 55.47L51.5859 70.3256L56.3787 88.384L59.2544 105.148L58.8436 122.797L70.3463 136.903L72.2634 154.689L82.1913 168.931L87.0526 186.24L99.9247 198.438L109.921 212.544L119.507 227.195L132.79 238.575L146.278 250.024L157.712 263.585L169.831 276.396L185.716 285.118L198.588 297.112L209.543 311.627L225.359 322.598L238.163 308.492L250.35 296.362L265.276 287.367L277.874 275.714L290.335 263.857L305.399 254.658L311.629 236.872L329.363 229.853L337.031 213.771L345.179 198.574L358.256 186.922L367.02 172.202L378.797 158.982L380.645 140.992L387.218 125.387L387.561 108.282L393.586 91.9957L393.381 74.755L387.492 58.6047L377.633 44.7712L369.69 29.643L355.586 19.8983L342.782 6.95078L324.022 8.7907L307.726 2.24878L290.678 5.51974L273.766 8.24554L256.649 13.0157L241.654 23.033L229.056 36.2531L225.427 56.9692Z" fill="#7B00FF"/>
<path d="M252.894 147.623C252.895 147.628 252.898 147.632 252.901 147.636L255.066 150.47V158.98L231.163 190.262L181.193 170.36L194.229 136.241L205.102 124.857L205.102 124.858L205.106 124.853L209.445 119.174L231.157 116.333L233.316 119.157L235.492 122.005L237.668 124.853L239.844 127.701L242.02 130.549L244.196 133.397L246.372 136.244L248.548 139.092L250.72 141.934L252.894 147.623Z" fill="black" stroke="black" stroke-width="0.1" stroke-linejoin="round"/>
<path d="M247.914 112.678C244.146 113.833 255.206 139.392 251.577 140.093C248.019 140.772 235.26 122.282 231.886 124.573C229.495 126.216 222.971 123.72 220.122 124.573C215.99 125.811 211.774 122.798 208.373 126.42C206.963 127.909 205.358 129.339 204.22 130.977C202.324 133.845 200.72 136.9 199.432 140.093C198.161 143.202 195.887 145.917 195.516 149.411C195.417 150.288 193.999 150.003 194.09 151.09C195.292 154.915 195.713 159.149 198.319 162.476C200.149 164.809 201.287 167.599 203.985 169.313C205.307 170.286 206.89 170.832 208.53 170.881C211.529 170.851 214.486 170.96 217.388 171.937C221.688 173.408 226.091 174.608 230.415 176C231.513 176.359 232.59 176.582 233.574 177.661C234.992 179.263 237.217 178.024 239.053 177.982C244.325 177.872 249.434 176.632 254.577 175.489C255.325 175.371 256.036 175.07 256.648 174.613C259.397 172.216 262.311 170.043 265.561 168.363C268.03 167.09 270.414 165.467 272.373 163.714C275.55 160.887 278.466 157.462 279.151 152.876C279.218 152.379 278.894 151.847 278.748 151.284C279.729 151.196 280.301 151.199 280.342 152.378C280.524 156.56 281.11 160.736 279.498 164.821C278.668 166.799 278.301 168.943 278.427 171.081C278.543 173.125 277.45 175.101 277.402 177.333C277.313 180.114 276.46 183.243 273.899 185.093C272.676 185.97 272.816 187.244 272.246 188.344C267.882 190.612 263.729 193.506 258.874 194.608C252.894 195.991 246.822 196.914 240.839 198.102C238.375 198.598 235.979 199.634 233.547 199.752C230.44 199.857 227.443 200.362 224.497 201.121C221.62 201.858 218.635 200.942 215.814 201.912C215.546 202.025 215.158 202.186 214.976 202.087C213.161 200.882 211.005 202.035 209.224 201.272C205.21 199.564 201.074 199.634 196.834 199.91C191.394 200.292 185.822 198.474 180.897 195.795C178.586 194.546 175.88 194.104 173.347 193.305C172.049 192.906 170.751 192.573 169.943 191.266C168.188 188.481 164.844 187.908 162.425 186.042C159.088 183.441 155.581 181.112 152.646 178.029C151.244 176.583 149.287 175.702 147.835 174.284C143.661 170.259 140.308 165.493 136.937 160.786C136.416 160.064 135.984 159.327 135.323 158.649C133.054 156.224 132.622 153.067 132.658 149.838C132.664 149.473 132.573 149.423 132.87 149.147C135.953 146.421 138.445 142.65 142.98 142.314C144.662 142.224 146.27 141.561 147.544 140.431C150.726 137.52 154.768 136.233 158.311 134.015C158.444 133.927 158.589 133.798 158.718 133.795C165.104 133.508 169.443 128.9 174.5 125.959C182.398 121.363 186.182 121.055 191.783 119.318C196.847 117.74 202.039 116.505 207.192 115.537C214.009 114.26 220.812 112.265 227.869 112.488C233.624 110.387 239.522 112.522 245.311 111.901C246.144 111.811 247.048 112.391 247.92 112.659L247.914 112.678Z" fill="white"/>
<path d="M191.199 124.872C195.02 125.834 196.311 125.282 199.971 125.797C203.56 126.295 202.644 121.371 206.13 123.488C208.601 125.007 221.243 115.141 224.131 115.849C228.321 116.875 229.961 118.125 233.54 121.57C235.025 122.986 233.604 125.938 234.824 127.516C236.862 130.285 241.714 131.648 243.162 134.772C244.589 137.813 248.98 138.761 249.528 142.231C249.671 143.102 249.09 144.394 249.054 145.484C248.047 149.366 247.841 153.615 245.407 157.07C243.698 159.493 242.702 162.337 240.094 164.186C238.823 165.225 237.27 165.85 235.634 165.982C232.638 166.104 229.69 166.362 226.841 167.486C222.621 169.173 218.284 170.595 214.037 172.204C212.958 172.618 211.893 172.895 210.965 174.023C209.631 175.695 207.346 174.57 205.51 174.622C200.24 174.779 195.074 173.8 189.88 172.919C189.127 172.838 188.402 172.574 187.767 172.148C184.901 169.894 181.88 167.872 178.549 166.358C176.019 165.212 173.555 163.712 171.511 162.06C168.194 159.399 165.109 156.126 164.193 151.581C164.1 151.087 164.398 150.54 164.514 149.97C163.53 149.932 162.959 149.964 162.977 151.143C163.008 155.329 162.634 159.53 164.451 163.527C165.38 165.461 165.855 167.583 165.837 169.725C165.825 171.772 170.182 172.129 170.343 174.355C170.573 177.128 171.485 177.75 174.135 179.468C175.401 180.282 177.097 180.869 177.723 181.938C182.196 183.982 183.5 187.286 188.404 188.141C194.446 189.219 198.709 193.923 204.745 194.806C207.231 195.177 209.676 196.09 212.111 196.084C215.219 196.031 218.237 196.384 221.219 196.993C224.129 197.583 227.064 196.517 229.93 197.343C230.203 197.441 230.6 197.583 230.776 197.475C232.528 196.179 234.739 197.221 236.479 196.369C240.402 194.46 244.536 194.32 248.785 194.38C254.237 194.486 259.709 192.388 264.493 189.463C266.737 188.099 269.418 187.52 271.907 186.594C273.184 186.13 274.463 185.731 275.204 184.385C276.815 181.514 280.127 180.772 282.447 178.787C285.649 176.019 289.033 173.515 291.809 170.288C293.136 168.773 295.045 167.793 296.424 166.304C300.389 162.072 303.496 157.142 306.625 152.27C307.109 151.523 307.502 150.765 308.128 150.054C310.271 147.518 310.543 144.343 310.344 141.12C310.319 140.755 310.408 140.701 310.097 140.44C306.88 137.874 304.2 134.234 299.654 134.128C297.97 134.124 296.331 133.543 295.001 132.479C291.675 129.733 287.573 128.653 283.923 126.618C283.786 126.536 283.634 126.415 283.505 126.418C277.113 126.456 272.547 122.073 267.347 119.392C259.226 115.202 257.302 114.132 251.62 112.681C246.483 111.362 239.495 109.409 234.3 108.704C227.427 107.774 212.895 113.668 205.858 114.248C200.005 112.442 196.499 135.42 190.686 135.093C189.849 135.046 184.887 151.312 187.964 127.491L191.199 124.872Z" fill="white"/>
</svg>
