<svg width="179" height="134" viewBox="0 0 179 134" fill="none" xmlns="http://www.w3.org/2000/svg">
<g clip-path="url(#clip0_292_146)">
<path d="M118.427 55.3735C117.532 54.2455 116.665 53.033 116.302 51.9614C115.854 50.6361 117.252 49.2261 117.448 48.0982C117.672 46.7164 117.336 45.2501 118.036 44.3759C119.07 43.0506 120.553 42.6558 121.364 43.0788C122.79 43.7837 121.475 43.6709 119.182 43.2198C118.147 43.0224 116.917 42.8532 115.658 42.6558C114.4 42.4584 113.225 42.5712 112.107 42.543C110.652 42.5148 109.366 42.0918 108.611 42.543C107.352 43.3044 106.429 44.2349 105.954 45.2783C105.422 46.4626 105.674 47.8726 105.562 49.0851C105.45 50.4387 104.891 51.764 104.779 53.1175C104.667 54.4711 104.583 55.8246 104.472 57.1782C104.36 58.5317 103.661 59.8289 103.521 61.1824C103.381 62.5359 103.689 63.9177 103.577 65.2712C103.437 66.6812 104.472 67.5271 104.723 68.3449C105.059 69.4165 105.842 70.065 106.289 71.1366C106.625 71.9543 106.066 73.2797 106.178 74.6614C106.261 75.7612 106.905 77.0019 106.877 78.3555C106.877 79.5116 106.569 80.7524 106.485 82.0495C106.429 83.2621 106.793 84.531 106.709 85.7718C106.625 87.0125 106.541 88.2533 106.457 89.4658C106.373 90.7347 105.842 91.9473 105.758 93.1034C105.674 94.457 106.01 95.6695 106.01 96.7411C106.01 97.9818 104.639 99.1944 104.611 100.435C104.583 101.676 105.814 102.917 105.814 104.157C105.814 105.398 105.003 106.611 104.975 107.851C104.947 109.092 105.758 110.333 105.758 111.574C105.758 112.814 104.975 114.079 104.975 115.32C104.975 116.56 104.947 117.798 104.975 119.038C105.003 120.279 105.311 121.482 105.367 122.723C105.422 123.964 105.506 125.137 105.59 126.378C105.674 127.619 105.255 128.888 105.367 130.1C105.478 131.313 105.199 131.246 105.367 132.487C106.681 132.712 108.459 131.939 109.55 132.136C110.892 132.362 112.195 131.967 113.258 132.136C114.628 132.334 117.197 132.024 118.287 132.136C119.574 132.277 121.971 132.108 123.146 132.136C124.32 132.165 126.37 131.496 127.684 131.468C128.775 131.44 129.191 131.525 130.562 131.468C131.652 131.412 131.663 131.525 133.034 131.468C134.152 131.412 134.163 131.496 135.506 131.468C136.596 131.44 135.403 130.918 135.962 130.1C136.577 129.198 134.555 129.161 135.506 127.216C136.093 125.975 135.696 124.061 134.27 123.525C133.291 123.159 133.056 122.769 131.798 122.712C130.539 122.656 130.332 122.487 129.326 122.712C127.648 122.515 127.268 123.051 125.618 122.712C124.974 122.599 124.292 122.718 123.146 122.295C121.887 121.816 122.134 122.859 121.91 122.295C121.434 121.111 121.643 121.019 121.308 119.835C120.972 118.651 119.69 118.615 119.438 117.375C119.186 116.134 118.314 113.695 118.202 112.454C118.09 111.213 118.23 110.033 118.202 108.764C118.174 107.495 118.118 106.342 118.202 105.073C118.286 103.804 119.042 103.882 119.182 102.613C119.322 101.344 118.119 99.7302 118.287 98.4894C118.455 97.2487 118.986 96.0361 119.182 94.7954C119.378 93.5546 119.014 92.2011 119.238 90.9603C119.462 89.7196 119.881 88.4788 120.077 87.2663C120.273 86.0538 120.469 84.7566 120.636 83.5159C120.804 82.2751 121.196 81.0062 121.308 79.7936C121.42 78.5811 120.469 77.1993 120.497 75.9868C120.525 74.7742 121.028 73.6463 120.972 72.5183C120.916 71.3058 120.636 70.1496 120.581 69.0499C120.525 67.8091 121.392 66.653 121.475 65.5532C121.559 64.3407 121.643 63.2691 122.063 62.254C122.622 60.9004 122.398 59.3213 121.755 58.0241C121.168 56.868 120.441 55.5426 119.574 54.4147C118.707 53.2867 117.392 52.469 116.889 51.3128C116.302 50.0157 115.742 48.5493 116.413 47.1676" fill="#DEDCFF"/>
<path d="M45.8322 55.3523C46.7756 54.2446 47.0998 53.2753 47.4831 52.223C47.9547 50.9215 49.5171 49.7584 49.3107 48.6507C49.0749 47.2938 47.4831 46.4076 46.7461 45.5492C45.6554 44.2476 44.4172 43.3892 43.5624 43.8046C42.0589 44.4969 43.4444 44.0538 45.8617 43.6107C46.9524 43.4169 48.2495 43.1123 49.6055 42.9184C50.9616 42.7246 52.2292 42.3646 53.4083 42.3369C54.9412 42.3092 56.2973 43.0015 57.0932 43.4446C58.4197 44.1922 59.0388 45.2169 59.5399 46.2692C60.1 47.4323 60.6601 48.5953 60.7781 49.8138C60.896 51.143 60.6012 52.4999 60.7486 53.8292C60.896 55.1584 61.0728 56.4876 61.2202 57.8169C61.3676 59.1461 60.896 60.5307 61.0139 61.8599C61.1318 63.1892 61.7214 64.4907 61.8688 65.8199C62.0162 67.2046 62.8121 68.3399 62.5173 69.1707C62.1636 70.223 61.8393 71.1922 61.3676 72.2446C61.0139 73.0476 59.8052 73.6569 59.6873 75.0138C59.5989 76.0938 60.2474 77.2846 60.2769 78.6138C60.2769 79.7492 60.1 80.9676 60.1885 82.2138C60.2474 83.4046 60.837 84.5676 60.9254 85.7861C61.0139 87.0046 61.1613 88.223 61.2497 89.3861C61.3382 90.6323 60.9844 91.9061 61.0434 93.0415C61.1318 94.3707 61.574 95.6169 61.574 96.6692C61.574 97.8876 60.159 99.1061 60.1885 100.325C60.2179 101.543 61.5445 102.734 61.574 103.952C61.6035 105.171 60.8075 106.389 60.837 107.608C60.8665 108.826 61.7509 110.017 61.7803 111.235C61.8098 112.454 61.4266 113.672 61.4266 114.891C61.4266 116.109 61.8393 117.328 61.8098 118.546C61.7803 119.765 60.3359 120.955 60.3064 122.174C60.2769 123.392 61.1318 124.638 61.0434 125.857C60.9549 127.075 60.3653 128.238 60.2474 129.457C60.1295 130.675 59.36 131.101 59.2126 132.32C57.8271 132.541 57.474 132.667 56.3243 132.861C54.9094 133.083 54.4052 133.056 53.2555 133.222C51.8111 133.416 50.9754 132.751 49.8257 132.861C48.4697 133 47.634 133.195 46.3958 133.222C45.1577 133.25 43.6294 133.394 42.2439 133.366C41.0942 133.339 40.543 132.725 39.0985 132.669C37.9489 132.614 36.8351 133.422 35.3906 133.366C34.2114 133.311 33.0682 133.278 31.6826 133.222C30.4461 132.861 30.1677 131.859 29.6076 131.056C28.9591 130.17 30.2124 131.559 29.2101 129.676C28.591 128.458 28.9721 126.512 30.4461 125.986C31.4778 125.626 30.3266 124.839 31.6826 124.755C33.0387 124.672 34.3293 124.534 35.3906 124.755C37.1593 124.562 37.3593 124.749 39.0985 124.417C39.7765 124.306 40.3324 123.968 41.5705 123.525C42.897 123.055 45.0426 122.821 45.2784 122.295C45.7796 121.132 46.4218 121.952 46.7756 120.789C47.1293 119.626 47.4831 118.325 47.7484 117.106C48.0137 115.888 47.5715 114.531 47.6894 113.312C47.8073 112.094 47.1883 110.82 47.2177 109.574C47.2472 108.328 47.4536 107.109 47.3946 105.891C47.3357 104.672 46.7461 103.481 46.5987 102.235C46.4513 100.989 47.2767 99.6599 47.0998 98.4415C46.923 97.223 47.0703 95.9215 46.864 94.703C46.6576 93.4846 45.8028 92.3215 45.5964 91.1307C45.39 89.9399 45.3606 88.6384 45.1247 87.4199C44.8889 86.2015 44.6826 84.9553 44.4762 83.7369C44.2699 82.5184 44.3288 81.2446 44.2109 80.0261C44.093 78.8076 42.8549 77.5892 42.8254 76.3707C42.7959 75.1799 43.356 73.9892 43.415 72.9092C43.4739 71.7184 43.3265 70.5553 43.415 69.4753C43.4739 68.2569 44.4467 67.1215 44.3878 66.0692C44.2993 64.8784 43.9751 63.7153 43.5329 62.6907C42.9433 61.3615 43.356 60.3092 44.034 59.0353C44.6531 57.8999 45.7438 56.9861 46.6576 55.8784C47.5715 54.7707 48.0137 53.303 48.5738 52.1399C49.1928 50.8661 48.9865 49.7307 48.279 48.3738" fill="#DEDCFF"/>
<path d="M82.3578 17.7334L80.0466 12.265L74.8478 7.58768L69.8124 2.75443L63.2799 0H52.6942L46.5143 1.74148L40.3344 1.7416L32.9185 4.20188L27.9746 9.12244L25.5027 12.8129L23.0307 17.7334L21.7947 22.654L16.8514 27.5745L19.3232 33.7252L20.5592 39.8759L19.3234 44.7965L20.6008 50.2554L24.2673 55.8678L25.3096 62.4685L27.2422 69.0687L32.3593 73.7201L36.3333 79.099L40.1439 84.6858L45.4243 89.0254L50.7864 93.3909L55.332 98.562L60.1497 103.447L66.4645 106.773L71.5816 111.347L75.9366 116.882L82.2241 121.065L88.5377 116.145L93.4816 112.454L98.0927 107.631L103.85 103.447L108.055 98.6659L114.043 95.1579L118.201 89.0815L123.569 85.6993L126.618 79.5667L129.857 73.772L135.056 69.3286L138.54 63.7158L143.221 58.6746L143.956 51.8145L146.569 45.8639L146.705 39.3416L146.629 33.7252V27.5745L144.157 21.4238L140.449 16.5032L137.977 12.8128L133.033 7.89223L128.089 4.20181L121.446 1.4032H114.493L108.313 2.97167L100.897 4.20181L94.7176 5.43195L89.7736 7.89223L86.373 12.265L82.3578 17.7334Z" fill="#DEDCFF"/>
<path d="M117.814 61.0919C117.023 60.1078 116.257 59.0498 115.935 58.1149C115.54 56.9586 116.776 55.7285 116.949 54.7443C117.146 53.5388 116.85 52.2595 117.468 51.4968C118.382 50.3404 119.693 49.996 120.409 50.365C121.67 50.9801 120.508 50.8817 118.481 50.4881C117.567 50.3158 116.479 50.1682 115.367 49.996C114.254 49.8238 113.216 49.9222 112.227 49.8976C110.942 49.873 109.805 49.5039 109.137 49.8976C108.025 50.5619 107.209 51.3738 106.789 52.2841C106.319 53.3174 106.542 54.5475 106.443 55.6054C106.344 56.7864 105.85 57.9427 105.751 59.1236C105.652 60.3046 105.578 61.4855 105.479 62.6664C105.38 63.8474 104.762 64.9791 104.638 66.16C104.515 67.341 104.787 68.5465 104.688 69.7275C104.564 70.9576 105.479 71.6957 105.701 72.4092C105.998 73.3441 106.69 73.9099 107.086 74.8448C107.382 75.5583 106.888 76.7146 106.987 77.9202C107.061 78.8797 107.629 79.9622 107.605 81.1432C107.605 82.1519 107.333 83.2344 107.259 84.3661C107.209 85.424 107.531 86.5312 107.456 87.6137C107.382 88.6962 107.308 89.7787 107.234 90.8367C107.16 91.9438 106.69 93.0017 106.616 94.0104C106.542 95.1914 106.838 96.2493 106.838 97.1842C106.838 98.2667 105.627 99.3246 105.602 100.407C105.578 101.49 106.665 102.572 106.665 103.655C106.665 104.737 105.948 105.795 105.924 106.878C105.899 107.96 106.616 109.043 106.616 110.125C106.616 111.208 106.27 112.266 106.27 113.348C106.27 114.431 106.616 115.489 106.641 116.571C106.665 117.654 105.479 118.761 105.528 119.843C105.578 120.926 106.393 121.959 106.468 123.042C106.542 124.124 106.171 125.231 106.27 126.289C106.369 127.347 106.22 128.799 106.369 129.881C107.531 130.078 109.063 129.291 110.027 129.463C111.214 129.66 112.252 129.857 113.191 130.004C114.403 130.177 115.342 130.988 116.306 131.087C117.443 131.21 118.506 131.185 119.544 131.21C120.582 131.234 121.571 130.423 122.733 130.398C123.697 130.373 124.785 131.333 125.996 131.284C126.96 131.234 127.998 130.619 129.21 130.57C130.198 130.521 131.261 130.103 132.448 130.078C133.412 130.054 134.599 130.939 135.093 130.226C135.637 129.438 133.783 128.504 134.623 126.806C135.142 125.723 134.747 125.576 133.486 125.108C132.621 124.789 131.682 123.411 130.569 123.362C129.457 123.312 128.246 124.272 127.356 124.469C125.872 124.296 125.872 124.198 124.414 123.903C123.845 123.804 122.881 123.066 121.868 122.697C120.756 122.279 120.212 121.787 120.014 121.295C119.594 120.262 119.124 119.302 118.827 118.269C118.531 117.235 118.308 116.178 118.086 115.095C117.863 114.013 117.221 113.004 117.122 111.921C117.023 110.839 116.38 109.732 116.355 108.624C116.331 107.517 116.553 106.386 116.627 105.279C116.702 104.171 116.355 103.015 116.479 101.908C116.603 100.801 117.542 99.7921 117.69 98.7096C117.839 97.627 118.308 96.5691 118.481 95.4866C118.654 94.4041 118.333 93.2231 118.531 92.1406C118.729 91.0581 119.099 89.9756 119.272 88.9176C119.445 87.8597 119.618 86.728 119.767 85.6455C119.915 84.5629 120.261 83.4558 120.36 82.3979C120.459 81.34 119.618 80.1344 119.643 79.0765C119.668 78.0186 120.113 77.0345 120.063 76.0504C120.014 74.9925 119.767 73.9837 119.717 73.0242C119.668 71.9417 120.434 70.933 120.508 69.9735C120.583 68.9156 120.657 67.9807 121.027 67.095C121.522 65.914 121.324 64.5363 120.756 63.4045C120.236 62.3958 119.594 61.2395 118.827 60.2554C118.061 59.2713 116.899 58.5578 116.454 57.5491C115.935 56.4173 115.441 55.138 116.034 53.9325" fill="#181818"/>
<path d="M47.4939 61.2811C48.2849 60.297 48.5569 59.4359 48.8782 58.501C49.2737 57.3446 50.5839 56.3113 50.4108 55.3272C50.2131 54.1217 48.8782 53.3344 48.2602 52.5717C47.3456 51.4154 46.3074 50.6527 45.5905 51.0217C44.3298 51.6368 45.4916 51.2431 47.5186 50.8495C48.4333 50.6773 49.5209 50.4066 50.658 50.2344C51.7951 50.0622 52.8581 49.7424 53.8469 49.7178C55.1323 49.6932 56.2694 50.3082 56.9368 50.7019C58.0492 51.3661 58.5683 52.2764 58.9885 53.2114C59.4582 54.2447 59.9279 55.278 60.0268 56.3605C60.1256 57.5415 59.8784 58.747 60.002 59.9279C60.1256 61.1089 60.274 62.2898 60.3976 63.4707C60.5211 64.6517 60.1256 65.8818 60.2245 67.0627C60.3234 68.2437 60.8178 69.4 60.9414 70.5809C61.065 71.8111 61.7324 72.8198 61.4852 73.5579C61.1886 74.4928 60.9167 75.3539 60.5211 76.2888C60.2245 77.0023 59.211 77.5435 59.1121 78.7491C59.038 79.7086 59.5818 80.7665 59.6065 81.9474C59.6065 82.9562 59.4582 84.0387 59.5324 85.1458C59.5818 86.2037 60.0762 87.237 60.1504 88.3196C60.2245 89.4021 60.3481 90.4846 60.4223 91.5179C60.4964 92.6251 60.1998 93.7568 60.2492 94.7655C60.3234 95.9464 60.6942 97.0536 60.6942 97.9885C60.6942 99.071 59.5076 100.154 59.5324 101.236C59.5571 102.319 60.6695 103.376 60.6942 104.459C60.7189 105.542 60.0515 106.624 60.0762 107.707C60.1009 108.789 60.8425 109.847 60.8672 110.93C60.8919 112.012 60.5706 113.095 60.5706 114.177C60.5706 115.26 60.9167 116.342 60.8919 117.425C60.8672 118.507 59.656 119.565 59.6312 120.648C59.6065 121.73 60.3234 122.837 60.2492 123.92C60.1751 125.002 59.6807 126.036 59.5818 127.118C59.4829 128.201 59.1121 128.89 58.9885 129.972C57.8267 130.169 57.2582 131.325 56.2941 131.497C55.1076 131.694 54.0446 131.817 53.0805 131.965C51.8693 132.137 50.7322 131.596 49.7681 131.694C48.631 131.817 47.5928 131.965 46.5546 131.99C45.5163 132.014 44.4781 132.801 43.3163 132.777C42.3522 132.752 41.3387 131.694 40.1275 131.645C39.1634 131.596 38.0757 132.137 36.8645 132.088C35.8757 132.039 34.788 132.383 33.6262 132.334C32.6621 132.309 31.1543 132.039 30.6846 131.325C30.1407 130.538 31.4262 129.8 30.5857 128.127C30.0666 127.044 31.0801 125.642 32.3161 125.175C33.1813 124.855 34.4914 125.839 35.6285 125.765C36.7656 125.691 37.8533 124.904 38.7432 125.101C40.2263 124.929 40.1769 124.732 41.6354 124.436C42.2039 124.338 43.4152 124.461 44.4534 124.067C45.5658 123.649 47.0984 123.108 47.2962 122.64C47.7164 121.607 47.9883 120.451 48.2849 119.418C48.5816 118.384 48.8782 117.228 49.1007 116.145C49.3232 115.063 48.9524 113.857 49.0513 112.775C49.1501 111.692 48.631 110.561 48.6557 109.453C48.6805 108.346 48.8535 107.264 48.8041 106.181C48.7546 105.099 48.2602 104.041 48.1366 102.934C48.013 101.827 48.7052 100.646 48.5569 99.563C48.4085 98.4805 48.5321 97.3242 48.3591 96.2417C48.1861 95.1592 47.4692 94.1258 47.2962 93.0679C47.1231 92.01 47.0984 90.8537 46.9006 89.7711C46.7029 88.6886 46.5299 87.5815 46.3568 86.499C46.1838 85.4164 46.2332 84.2847 46.1343 83.2022C46.0355 82.1197 44.9972 81.0371 44.9725 79.9546C44.9478 78.8967 45.4175 77.8388 45.4669 76.8793C45.5163 75.8213 45.3927 74.788 45.4669 73.8285C45.5163 72.746 46.3321 71.7373 46.2827 70.8024C46.2085 69.7444 45.9366 68.7111 45.5658 67.8008C45.0714 66.6199 45.4175 65.685 45.986 64.5533C46.5051 63.5445 47.4198 62.7326 48.1861 61.7485C48.9524 60.7644 49.3232 59.4605 49.7928 58.4272C50.312 57.2954 50.1389 56.2867 49.5456 55.0812" fill="#181818"/>
<path d="M26.7013 88.075C26.3077 91.2124 24.7156 90.2304 25.7229 93.3028C26.1417 94.5628 27.0948 97.7038 27.9071 98.8483C28.2465 99.2924 28.5462 100.632 28.7267 101.148C28.9072 101.664 28.4306 102.152 28.0696 102.567C27.6291 103.08 26.5749 103.015 25.8817 102.697C25.1885 102.379 24.665 102.072 24.4917 101.91C23.2425 100.617 22.2461 99.3466 20.8417 98.2526C19.7838 97.4403 19.0293 95.7217 17.8162 95.1044C16.6031 94.487 16.7295 95.2705 15.6211 95.9312C14.5127 96.5919 13.6209 98.6859 12.8736 99.7184C12.2165 100.614 11.776 100.812 10.729 101.289C9.68202 101.765 7.96349 100.004 7.56274 98.9566C7.25947 98.1515 9.12242 95.7073 9.62426 95.0069C11.6316 92.0825 12.0793 92.5916 11.5414 89.057C11.1226 88.5732 10.0178 88.2375 6.98147 88.7032C5.15463 88.9992 2.7429 89.4433 1.07852 88.5913C0.800526 88.4974 0.367283 88.1292 0.0531812 87.6093C-0.260921 87.0894 0.898006 85.3961 1.39263 85.1073C1.88725 84.8184 3.62383 84.5477 4.25564 84.5116C6.84428 84.4105 8.18372 83.609 9.39319 83.3599C10.7038 83.0891 11.4078 82.172 13.4657 80.4535C15.3142 78.8794 15.7222 79.356 17.5598 77.771C19.3975 76.1861 19.5022 76.3052 21.3435 74.7203C23.1848 73.1353 22.6902 72.5649 24.5314 70.9799C26.3727 69.395 27.4051 67.6584 29.2464 66.0698C31.0877 64.4813 30.3441 66.5644 32.124 64.9145C33.2144 63.6689 34.9257 62.8963 35.951 61.5424C36.9764 60.1885 37.0702 58.0837 38.2833 56.9067C39.4964 55.7297 41.1138 55.0835 42.7169 54.3325C44.0996 53.6827 45.7568 53.3686 47.6269 53.17C48.8111 51.9316 49.7354 50.3178 51.0785 49.3899C52.4215 48.4621 54.4072 48.4801 55.9344 47.8375C57.4616 47.1948 58.7649 45.6496 60.404 45.3102C62.0431 44.9709 63.8339 45.9276 65.5163 45.8734C67.1987 45.8193 68.7981 45.0394 70.4769 45.238C73.2389 44.8048 71.4842 45.5738 74.1812 46.6461C71.2387 47.3862 72.2243 48.0036 71.7731 52.8992C70.0509 53.2494 68.8884 53.2855 67.4587 53.7621C65.7907 54.3145 64.7401 56.0222 63.3934 56.7081C61.8518 57.4952 60.5015 58.2389 59.2559 59.1488C57.8948 60.138 56.8947 61.3691 55.7178 62.4342C54.5408 63.4992 52.7103 63.9578 51.5117 65.0589C50.3131 66.1601 49.6307 67.8822 48.2913 68.8895C46.7532 69.8174 44.5979 69.6152 43.2006 70.4781C41.6915 71.4132 40.4676 72.6948 39.0993 73.6408C37.7309 74.5867 36.5576 75.9731 35.2542 77.0814C33.9509 78.1898 32.3334 78.9444 31.1456 80.2513C30.0445 81.4608 29.4452 83.1793 28.4018 84.6596C28.2357 84.8943 27.3006 85.6994 27.3331 85.999C27.1778 86.4576 26.8276 87.6815 26.7013 88.0606V88.075Z" fill="#DEDCFF"/>
<path d="M154.661 46.498C156.268 43.7745 157.339 45.3078 157.634 42.088C157.75 40.7652 158.122 37.5039 157.83 36.131C157.695 35.5887 157.952 34.2404 157.991 33.6948C158.03 33.1493 158.661 32.8911 159.157 32.6534C159.765 32.3576 160.707 32.8357 161.217 33.4025C161.727 33.9692 162.086 34.4587 162.18 34.6766C162.814 36.3588 163.224 37.9208 164.079 39.4823C164.728 40.6478 164.738 42.5246 165.606 43.5728C166.475 44.621 166.67 43.8517 167.949 43.6852C169.229 43.5188 170.879 41.9508 171.974 41.2997C172.933 40.7387 173.416 40.7312 174.566 40.7094C175.716 40.6876 176.594 42.9868 176.547 44.1069C176.505 44.9662 173.825 46.4702 173.087 46.9139C170.083 48.8013 169.875 48.1563 168.965 51.614C169.158 52.2243 170.038 52.971 173.01 53.7487C174.804 54.2021 177.194 54.7518 178.384 56.1945C178.602 56.391 178.853 56.901 178.935 57.5028C179.017 58.1047 177.281 59.1988 176.713 59.2676C176.144 59.3364 174.443 58.8956 173.848 58.678C171.432 57.7433 169.885 57.9472 168.676 57.6958C167.365 57.4242 166.355 57.9864 163.784 58.7469C161.463 59.458 161.277 58.8586 158.962 59.584C156.646 60.3093 156.597 60.1584 154.278 60.8823C151.959 61.6061 152.186 62.326 149.867 63.0499C147.548 63.7738 147.707 63.571 145.386 64.2982C143.065 65.0254 143.304 66.3204 141.015 67.1283C139.52 67.8388 137.118 66.3437 135.64 67.1794C134.161 68.015 133.239 69.9097 131.659 70.5085C130.078 71.1073 128.337 71.0584 126.568 71.1114C125.041 71.159 123.395 70.7896 121.6 70.2295C120.021 70.8961 118.532 72.0105 116.931 72.329C115.33 72.6476 113.515 71.8428 111.858 71.8265C110.201 71.8101 108.392 72.7111 106.752 72.372C105.113 72.0329 103.849 70.4439 102.284 69.8258C100.718 69.2077 98.9403 69.2887 97.4782 68.44C94.7712 67.7414 96.6869 67.732 94.6372 65.6773C97.6317 66.166 96.9721 65.2081 99.3295 60.8937C101.049 61.2559 102.131 61.6842 103.632 61.8143C105.382 61.9693 107.024 60.8189 108.533 60.7238C110.26 60.6134 111.795 60.4667 113.299 60.126C114.941 59.7583 116.348 59.0253 117.851 58.5149C119.354 58.0045 121.216 58.3102 122.753 57.7753C124.29 57.2404 125.6 55.9305 127.229 55.5377C129.009 55.2965 130.907 56.3376 132.532 56.1002C134.289 55.841 135.921 55.1504 137.552 54.8253C139.184 54.5002 140.811 53.6935 142.447 53.1935C144.083 52.6935 145.867 52.6429 147.476 51.9148C148.967 51.2418 150.199 49.9023 151.745 48.9578C151.99 48.8083 153.168 48.4405 153.257 48.1526C153.582 47.7934 154.389 46.809 154.655 46.5112L154.661 46.498Z" fill="#DEDCFF"/>
<path d="M83.3218 23.5396L81.3195 16.4294L76.5981 12.0009L72.0249 7.42476L66.0922 4.81686L59.9123 3.02085L53.51 2.97165L47.1817 3.34069L41.1502 5.33352L34.9703 7.32635L30.5949 12.0993L26.1701 16.7L24.8105 22.9983L20.5587 28.3617L22.2891 34.8815L23.3273 40.9338L23.179 47.3059L27.3319 52.3987L28.024 58.82L31.6084 63.962L33.3635 70.2111L38.0108 74.615L41.6198 79.7078L45.0806 84.9974L49.8762 89.1061L54.7459 93.2393L58.8741 98.1353L63.2495 102.761L68.9844 105.91L73.6317 110.24L77.5869 115.48L83.2971 119.441L87.9197 114.349L92.3198 109.969L97.7086 106.722L102.257 102.515L106.756 98.2337L112.194 94.9123L114.444 88.491L120.846 85.9569L123.615 80.1507L126.556 74.6642L131.278 70.4571L134.442 65.1429L138.694 60.37L139.361 53.8749L141.734 48.2408L141.858 42.0655L144.033 36.1854L143.959 29.9609L141.833 24.1301L138.274 19.1357L135.406 13.6739L130.314 10.1557L125.691 5.48114L118.918 6.14541L113.035 3.78354L106.88 4.96448L100.774 5.94859L94.594 7.67078L89.1804 11.2874L84.632 16.0603L83.3218 23.5396Z" fill="#7B00FF"/>
<path d="M76.0067 48.0717L76.0103 48.0675L77.569 46.0277L85.3762 45.006L86.1443 46.0112L86.93 47.0393L87.7156 48.0675L88.5013 49.0957L89.2869 50.1238L90.0726 51.152L90.8582 52.1802L91.6439 53.2083L92.4251 54.2307L93.2082 56.2803C93.2099 56.2848 93.2123 56.289 93.2152 56.2928L93.9906 57.3076V60.3582L85.3817 71.6245L67.3927 64.4596L72.0854 52.1771L76.0067 48.0717Z" fill="#181818" stroke="#181818" stroke-width="0.1" stroke-linejoin="round"/>
<path d="M91.4402 43.6527C90.0798 44.0696 94.073 53.2973 92.7628 53.5503C91.478 53.7954 86.8716 47.1201 85.6534 47.9472C84.7902 48.5402 82.4349 47.639 81.4064 47.9472C79.9144 48.3939 78.3922 47.3061 77.1645 48.6139C76.6552 49.1517 76.0759 49.6679 75.6649 50.2593C74.9805 51.2948 74.4014 52.3975 73.9366 53.5503C73.4777 54.6729 72.6566 55.6531 72.5227 56.9144C72.4869 57.231 71.9748 57.1284 72.0077 57.5206C72.4418 58.9017 72.5935 60.4301 73.5345 61.6315C74.1951 62.4737 74.606 63.4812 75.5801 64.0999C76.0576 64.4513 76.6291 64.6484 77.2211 64.666C78.3039 64.6553 79.3714 64.6944 80.4194 65.0473C81.9716 65.5783 83.5614 66.0117 85.1223 66.5143C85.519 66.6438 85.9078 66.7242 86.263 67.114C86.7748 67.6922 87.5781 67.2447 88.2411 67.2298C90.1443 67.1901 91.9888 66.7424 93.8456 66.3297C94.1158 66.2871 94.3724 66.1785 94.5933 66.0133C95.5859 65.1481 96.6379 64.3636 97.8115 63.7568C98.7026 63.2972 99.5636 62.7114 100.271 62.0783C101.418 61.0579 102.471 59.8212 102.718 58.1657C102.742 57.986 102.625 57.794 102.572 57.5907C102.927 57.5591 103.133 57.5601 103.148 57.9858C103.214 59.4955 103.425 61.0033 102.843 62.478C102.543 63.1924 102.411 63.9662 102.457 64.7381C102.498 65.4762 102.104 66.1895 102.086 66.9953C102.054 67.9994 101.746 69.1292 100.822 69.797C100.38 70.1138 100.431 70.5738 100.225 70.9707C98.6493 71.7896 97.1499 72.8345 95.3972 73.2324C93.2383 73.7318 91.046 74.0649 88.8858 74.4936C87.9963 74.673 87.1314 75.047 86.2532 75.0894C85.1315 75.1272 84.0496 75.3098 82.9856 75.5838C81.9471 75.8499 80.8694 75.5191 79.8509 75.8694C79.7543 75.9099 79.6139 75.9682 79.5483 75.9325C78.8931 75.4974 78.1148 75.9136 77.4718 75.6383C76.0224 75.0217 74.5294 75.047 72.9983 75.1463C71.0343 75.2844 69.0229 74.628 67.2445 73.6609C66.4104 73.2099 65.4333 73.0504 64.5188 72.7619C64.05 72.6179 63.5816 72.4975 63.2897 72.0258C62.6562 71.0203 61.4487 70.8134 60.5757 70.1398C59.3706 69.2006 58.1048 68.3597 57.0448 67.2466C56.5387 66.7247 55.8324 66.4065 55.3079 65.8946C53.8009 64.4415 52.5904 62.7207 51.3733 61.0213C51.1852 60.7608 51.0294 60.4946 50.7906 60.2497C49.9717 59.3744 49.8157 58.2346 49.8286 57.0687C49.8307 56.9368 49.7979 56.9189 49.905 56.8192C51.0182 55.8351 51.9179 54.4735 53.5552 54.3521C54.1623 54.3197 54.7428 54.0802 55.2029 53.6725C56.3519 52.6213 57.8111 52.1568 59.0901 51.3561C59.1382 51.3241 59.1907 51.2778 59.237 51.2764C61.5426 51.1731 63.1091 49.5092 64.9351 48.4475C67.7865 46.7881 69.1527 46.6771 71.1747 46.0499C73.003 45.4803 74.8777 45.0341 76.738 44.6848C79.1992 44.2237 81.6555 43.5036 84.2033 43.5838C86.2809 42.8255 88.4104 43.5962 90.5004 43.372C90.8012 43.3396 91.1275 43.5489 91.4424 43.6456L91.4402 43.6527Z" fill="#DEDCFF"/>
<path d="M70.9646 48.0549C72.3444 48.4023 72.8104 48.2029 74.1317 48.3891C75.4273 48.5688 75.0969 46.791 76.3553 47.5553C77.2474 48.1037 81.8116 44.5417 82.8544 44.7974C84.3671 45.1679 84.9591 45.6191 86.2514 46.8629C86.7873 47.3741 86.2744 48.44 86.7148 49.0098C87.4507 50.0092 89.2025 50.5016 89.7251 51.6293C90.2403 52.7272 91.8258 53.0695 92.0235 54.3225C92.0752 54.6368 91.8655 55.1033 91.8525 55.4968C91.4888 56.8981 91.4147 58.4322 90.5357 59.6797C89.9186 60.5544 89.5592 61.5814 88.6177 62.2487C88.1586 62.6238 87.5978 62.8497 87.0075 62.8973C85.9255 62.9414 84.8613 63.0346 83.8326 63.4402C82.3093 64.0492 80.7435 64.5627 79.21 65.1437C78.8204 65.2932 78.4361 65.3932 78.1011 65.8005C77.6192 66.4039 76.7943 65.9977 76.1315 66.0164C74.2287 66.0733 72.3638 65.7197 70.4885 65.4016C70.2165 65.3727 69.9548 65.2773 69.7257 65.1235C68.6907 64.3098 67.6003 63.5796 66.3975 63.033C65.4842 62.6192 64.5947 62.0778 63.8566 61.4814C62.6591 60.5204 61.5451 59.3387 61.2145 57.6978C61.181 57.5196 61.2884 57.322 61.3306 57.1163C60.9752 57.1026 60.7691 57.114 60.7757 57.54C60.7867 59.0511 60.6516 60.5677 61.3077 62.011C61.6431 62.7093 61.8144 63.4754 61.808 64.2486C61.8037 64.9878 63.3769 65.1165 63.435 65.9204C63.5179 66.9215 63.8471 67.1461 64.804 67.7661C65.2611 68.0601 65.8735 68.2721 66.0992 68.6581C67.7141 69.396 68.1849 70.5888 69.9555 70.8973C72.137 71.2866 73.676 72.9849 75.8553 73.3036C76.7527 73.4376 77.6354 73.7673 78.5146 73.7651C79.6368 73.746 80.7265 73.8736 81.803 74.0932C82.8537 74.3064 83.9132 73.9214 84.9481 74.2196C85.0467 74.2552 85.1898 74.3063 85.2535 74.2673C85.8859 73.7995 86.6843 74.1757 87.3125 73.8681C88.7288 73.1789 90.2212 73.1285 91.7553 73.1501C93.7238 73.1884 95.6994 72.4308 97.4266 71.3749C98.2368 70.8821 99.2045 70.6733 100.103 70.3388C100.564 70.1713 101.026 70.0273 101.293 69.5414C101.875 68.505 103.071 68.2372 103.909 67.5202C105.065 66.5211 106.286 65.6171 107.288 64.4518C107.768 63.9049 108.457 63.5512 108.955 63.0134C110.386 61.4858 111.508 59.7058 112.638 57.9469C112.812 57.6771 112.954 57.4034 113.18 57.1467C113.954 56.231 114.052 55.0849 113.98 53.9211C113.971 53.7894 114.003 53.7699 113.891 53.6758C112.73 52.7494 111.762 51.4351 110.121 51.3969C109.513 51.3953 108.921 51.1856 108.441 50.8016C107.24 49.8101 105.759 49.4201 104.441 48.6853C104.392 48.6558 104.337 48.6122 104.291 48.6132C101.983 48.6268 100.334 47.0445 98.4567 46.0767C95.525 44.564 94.8302 44.1774 92.779 43.6536C90.9242 43.1773 88.4014 42.4725 86.5258 42.218C84.0444 41.8822 78.7977 44.0101 76.2572 44.2194C74.1439 43.5674 72.878 51.8632 70.7794 51.7452C70.4773 51.7281 68.6859 57.6009 69.7966 49.0005L70.9646 48.0549Z" fill="#DEDCFF"/>
<path d="M118.427 55.3735C117.532 54.2455 116.665 53.033 116.302 51.9614C115.854 50.6361 117.252 49.2261 117.448 48.0982C117.672 46.7164 117.336 45.2501 118.036 44.3759C119.07 43.0506 120.553 42.6558 121.364 43.0788C122.79 43.7837 121.475 43.6709 119.182 43.2198C118.147 43.0224 116.917 42.8532 115.658 42.6558C114.4 42.4584 113.225 42.5712 112.107 42.543C110.652 42.5148 109.366 42.0918 108.611 42.543C107.352 43.3044 106.429 44.2349 105.954 45.2783C105.422 46.4626 105.674 47.8726 105.562 49.0851C105.45 50.4387 104.891 51.764 104.779 53.1175C104.667 54.4711 104.583 55.8246 104.472 57.1782C104.36 58.5317 103.661 59.8289 103.521 61.1824C103.381 62.5359 103.689 63.9177 103.577 65.2712C103.437 66.6812 104.472 67.5271 104.723 68.3449C105.059 69.4165 105.842 70.065 106.289 71.1366C106.625 71.9543 106.066 73.2797 106.178 74.6614C106.261 75.7612 106.905 77.0019 106.877 78.3555C106.877 79.5116 106.569 80.7524 106.485 82.0495C106.429 83.2621 106.793 84.531 106.709 85.7718C106.625 87.0125 106.541 88.2533 106.457 89.4658C106.373 90.7347 105.842 91.9473 105.758 93.1034C105.674 94.457 106.01 95.6695 106.01 96.7411C106.01 97.9818 104.639 99.1944 104.611 100.435C104.583 101.676 105.814 102.917 105.814 104.157C105.814 105.398 105.003 106.611 104.975 107.851C104.947 109.092 105.758 110.333 105.758 111.574C105.758 112.814 104.975 114.079 104.975 115.32C104.975 116.56 104.947 117.798 104.975 119.038C105.003 120.279 105.311 121.482 105.367 122.723C105.422 123.964 105.506 125.137 105.59 126.378C105.674 127.619 105.255 128.888 105.367 130.1C105.478 131.313 105.199 131.246 105.367 132.487C106.681 132.712 108.459 131.939 109.55 132.136C110.892 132.362 112.195 131.967 113.258 132.136C114.628 132.334 117.197 132.024 118.287 132.136C119.574 132.277 121.971 132.108 123.146 132.136C124.32 132.165 126.37 131.496 127.684 131.468C128.775 131.44 129.191 131.525 130.562 131.468C131.652 131.412 131.663 131.525 133.034 131.468C134.152 131.412 134.163 131.496 135.506 131.468C136.596 131.44 135.403 130.918 135.962 130.1C136.577 129.198 134.555 129.161 135.506 127.216C136.093 125.975 135.696 124.061 134.27 123.525C133.291 123.159 133.056 122.769 131.798 122.712C130.539 122.656 130.332 122.487 129.326 122.712C127.648 122.515 127.268 123.051 125.618 122.712C124.974 122.599 124.292 122.718 123.146 122.295C121.887 121.816 122.134 122.859 121.91 122.295C121.434 121.111 121.643 121.019 121.308 119.835C120.972 118.651 119.69 118.615 119.438 117.375C119.186 116.134 118.314 113.695 118.202 112.454C118.09 111.213 118.23 110.033 118.202 108.764C118.174 107.495 118.118 106.342 118.202 105.073C118.286 103.804 119.042 103.882 119.182 102.613C119.322 101.344 118.119 99.7302 118.287 98.4894C118.455 97.2487 118.986 96.0361 119.182 94.7954C119.378 93.5546 119.014 92.2011 119.238 90.9603C119.462 89.7196 119.881 88.4788 120.077 87.2663C120.273 86.0538 120.469 84.7566 120.636 83.5159C120.804 82.2751 121.196 81.0062 121.308 79.7936C121.42 78.5811 120.469 77.1993 120.497 75.9868C120.525 74.7742 121.028 73.6463 120.972 72.5183C120.916 71.3058 120.636 70.1496 120.581 69.0499C120.525 67.8091 121.392 66.653 121.475 65.5532C121.559 64.3407 121.643 63.2691 122.063 62.254C122.622 60.9004 122.398 59.3213 121.755 58.0241C121.168 56.868 120.441 55.5426 119.574 54.4147C118.707 53.2867 117.392 52.469 116.889 51.3128C116.302 50.0157 115.742 48.5493 116.413 47.1676" fill="#DEDCFF"/>
<path d="M45.8322 55.3523C46.7756 54.2446 47.0998 53.2753 47.4831 52.223C47.9547 50.9215 49.5171 49.7584 49.3107 48.6507C49.0749 47.2938 47.4831 46.4076 46.7461 45.5492C45.6554 44.2476 44.4172 43.3892 43.5624 43.8046C42.0589 44.4969 43.4444 44.0538 45.8617 43.6107C46.9524 43.4169 48.2495 43.1123 49.6055 42.9184C50.9616 42.7246 52.2292 42.3646 53.4083 42.3369C54.9412 42.3092 56.2973 43.0015 57.0932 43.4446C58.4197 44.1922 59.0388 45.2169 59.5399 46.2692C60.1 47.4323 60.6601 48.5953 60.7781 49.8138C60.896 51.143 60.6012 52.4999 60.7486 53.8292C60.896 55.1584 61.0728 56.4876 61.2202 57.8169C61.3676 59.1461 60.896 60.5307 61.0139 61.8599C61.1318 63.1892 61.7214 64.4907 61.8688 65.8199C62.0162 67.2046 62.8121 68.3399 62.5173 69.1707C62.1636 70.223 61.8393 71.1922 61.3676 72.2446C61.0139 73.0476 59.8052 73.6569 59.6873 75.0138C59.5989 76.0938 60.2474 77.2846 60.2769 78.6138C60.2769 79.7492 60.1 80.9676 60.1885 82.2138C60.2474 83.4046 60.837 84.5676 60.9254 85.7861C61.0139 87.0046 61.1613 88.223 61.2497 89.3861C61.3382 90.6323 60.9844 91.9061 61.0434 93.0415C61.1318 94.3707 61.574 95.6169 61.574 96.6692C61.574 97.8876 60.159 99.1061 60.1885 100.325C60.2179 101.543 61.5445 102.734 61.574 103.952C61.6035 105.171 60.8075 106.389 60.837 107.608C60.8665 108.826 61.7509 110.017 61.7803 111.235C61.8098 112.454 61.4266 113.672 61.4266 114.891C61.4266 116.109 61.8393 117.328 61.8098 118.546C61.7803 119.765 60.3359 120.955 60.3064 122.174C60.2769 123.392 61.1318 124.638 61.0434 125.857C60.9549 127.075 60.3653 128.238 60.2474 129.457C60.1295 130.675 59.36 131.101 59.2126 132.32C57.8271 132.541 57.474 132.667 56.3243 132.861C54.9094 133.083 54.4052 133.056 53.2555 133.222C51.8111 133.416 50.9754 132.751 49.8257 132.861C48.4697 133 47.634 133.195 46.3958 133.222C45.1577 133.25 43.6294 133.394 42.2439 133.366C41.0942 133.339 40.543 132.725 39.0985 132.669C37.9489 132.614 36.8351 133.422 35.3906 133.366C34.2114 133.311 33.0682 133.278 31.6826 133.222C30.4461 132.861 30.1677 131.859 29.6076 131.056C28.9591 130.17 30.2124 131.559 29.2101 129.676C28.591 128.458 28.9721 126.512 30.4461 125.986C31.4778 125.626 30.3266 124.839 31.6826 124.755C33.0387 124.672 34.3293 124.534 35.3906 124.755C37.1593 124.562 37.3593 124.749 39.0985 124.417C39.7765 124.306 40.3324 123.968 41.5705 123.525C42.897 123.055 45.0426 122.821 45.2784 122.295C45.7796 121.132 46.4218 121.952 46.7756 120.789C47.1293 119.626 47.4831 118.325 47.7484 117.106C48.0137 115.888 47.5715 114.531 47.6894 113.312C47.8073 112.094 47.1883 110.82 47.2177 109.574C47.2472 108.328 47.4536 107.109 47.3946 105.891C47.3357 104.672 46.7461 103.481 46.5987 102.235C46.4513 100.989 47.2767 99.6599 47.0998 98.4415C46.923 97.223 47.0703 95.9215 46.864 94.703C46.6576 93.4846 45.8028 92.3215 45.5964 91.1307C45.39 89.9399 45.3606 88.6384 45.1247 87.4199C44.8889 86.2015 44.6826 84.9553 44.4762 83.7369C44.2699 82.5184 44.3288 81.2446 44.2109 80.0261C44.093 78.8076 42.8549 77.5892 42.8254 76.3707C42.7959 75.1799 43.356 73.9892 43.415 72.9092C43.4739 71.7184 43.3265 70.5553 43.415 69.4753C43.4739 68.2569 44.4467 67.1215 44.3878 66.0692C44.2993 64.8784 43.9751 63.7153 43.5329 62.6907C42.9433 61.3615 43.356 60.3092 44.034 59.0353C44.6531 57.8999 45.7438 56.9861 46.6576 55.8784C47.5715 54.7707 48.0137 53.303 48.5738 52.1399C49.1928 50.8661 48.9865 49.7307 48.279 48.3738" fill="#DEDCFF"/>
<path d="M82.3578 17.7334L80.0466 12.265L74.8478 7.58768L69.8124 2.75443L63.2799 0H52.6942L46.5143 1.74148L40.3344 1.7416L32.9185 4.20188L27.9746 9.12244L25.5027 12.8129L23.0307 17.7334L21.7947 22.654L16.8514 27.5745L19.3232 33.7252L20.5592 39.8759L19.3234 44.7965L20.6008 50.2554L24.2673 55.8678L25.3096 62.4685L27.2422 69.0687L32.3593 73.7201L36.3333 79.099L40.1439 84.6858L45.4243 89.0254L50.7864 93.3909L55.332 98.562L60.1497 103.447L66.4645 106.773L71.5816 111.347L75.9366 116.882L82.2241 121.065L88.5377 116.145L93.4816 112.454L98.0927 107.631L103.85 103.447L108.055 98.6659L114.043 95.1579L118.201 89.0815L123.569 85.6993L126.618 79.5667L129.857 73.772L135.056 69.3286L138.54 63.7158L143.221 58.6746L143.956 51.8145L146.569 45.8639L146.705 39.3416L146.629 33.7252V27.5745L144.157 21.4238L140.449 16.5032L137.977 12.8128L133.033 7.89223L128.089 4.20181L121.446 1.4032H114.493L108.313 2.97167L100.897 4.20181L94.7176 5.43195L89.7736 7.89223L86.373 12.265L82.3578 17.7334Z" fill="#DEDCFF"/>
<path d="M117.814 61.0919C117.023 60.1078 116.257 59.0498 115.935 58.1149C115.54 56.9586 116.776 55.7285 116.949 54.7443C117.146 53.5388 116.85 52.2595 117.468 51.4968C118.382 50.3404 119.693 49.996 120.409 50.365C121.67 50.9801 120.508 50.8817 118.481 50.4881C117.567 50.3158 116.479 50.1682 115.367 49.996C114.254 49.8238 113.216 49.9222 112.227 49.8976C110.942 49.873 109.805 49.5039 109.137 49.8976C108.025 50.5619 107.209 51.3738 106.789 52.2841C106.319 53.3174 106.542 54.5475 106.443 55.6054C106.344 56.7864 105.85 57.9427 105.751 59.1236C105.652 60.3046 105.578 61.4855 105.479 62.6664C105.38 63.8474 104.762 64.9791 104.638 66.16C104.515 67.341 104.787 68.5465 104.688 69.7275C104.564 70.9576 105.479 71.6957 105.701 72.4092C105.998 73.3441 106.69 73.9099 107.086 74.8448C107.382 75.5583 106.888 76.7146 106.987 77.9202C107.061 78.8797 107.629 79.9622 107.605 81.1432C107.605 82.1519 107.333 83.2344 107.259 84.3661C107.209 85.424 107.531 86.5312 107.456 87.6137C107.382 88.6962 107.308 89.7787 107.234 90.8367C107.16 91.9438 106.69 93.0017 106.616 94.0104C106.542 95.1914 106.838 96.2493 106.838 97.1842C106.838 98.2667 105.627 99.3246 105.602 100.407C105.578 101.49 106.665 102.572 106.665 103.655C106.665 104.737 105.948 105.795 105.924 106.878C105.899 107.96 106.616 109.043 106.616 110.125C106.616 111.208 106.27 112.266 106.27 113.348C106.27 114.431 106.616 115.489 106.641 116.571C106.665 117.654 105.479 118.761 105.528 119.843C105.578 120.926 106.393 121.959 106.468 123.042C106.542 124.124 106.171 125.231 106.27 126.289C106.369 127.347 106.22 128.799 106.369 129.881C107.531 130.078 109.063 129.291 110.027 129.463C111.214 129.66 112.252 129.857 113.191 130.004C114.403 130.177 115.342 130.988 116.306 131.087C117.443 131.21 118.506 131.185 119.544 131.21C120.582 131.234 121.571 130.423 122.733 130.398C123.697 130.373 124.785 131.333 125.996 131.284C126.96 131.234 127.998 130.619 129.21 130.57C130.198 130.521 131.261 130.103 132.448 130.078C133.412 130.054 134.599 130.939 135.093 130.226C135.637 129.438 133.783 128.504 134.623 126.806C135.142 125.723 134.747 125.576 133.486 125.108C132.621 124.789 131.682 123.411 130.569 123.362C129.457 123.312 128.246 124.272 127.356 124.469C125.872 124.296 125.872 124.198 124.414 123.903C123.845 123.804 122.881 123.066 121.868 122.697C120.756 122.279 120.212 121.787 120.014 121.295C119.594 120.262 119.124 119.302 118.827 118.269C118.531 117.235 118.308 116.178 118.086 115.095C117.863 114.013 117.221 113.004 117.122 111.921C117.023 110.839 116.38 109.732 116.355 108.624C116.331 107.517 116.553 106.386 116.627 105.279C116.702 104.171 116.355 103.015 116.479 101.908C116.603 100.801 117.542 99.7921 117.69 98.7096C117.839 97.627 118.308 96.5691 118.481 95.4866C118.654 94.4041 118.333 93.2231 118.531 92.1406C118.729 91.0581 119.099 89.9756 119.272 88.9176C119.445 87.8597 119.618 86.728 119.767 85.6455C119.915 84.5629 120.261 83.4558 120.36 82.3979C120.459 81.34 119.618 80.1344 119.643 79.0765C119.668 78.0186 120.113 77.0345 120.063 76.0504C120.014 74.9925 119.767 73.9837 119.717 73.0242C119.668 71.9417 120.434 70.933 120.508 69.9735C120.583 68.9156 120.657 67.9807 121.027 67.095C121.522 65.914 121.324 64.5363 120.756 63.4045C120.236 62.3958 119.594 61.2395 118.827 60.2554C118.061 59.2713 116.899 58.5578 116.454 57.5491C115.935 56.4173 115.441 55.138 116.034 53.9325" fill="#181818"/>
<path d="M47.4939 61.2811C48.2849 60.297 48.5569 59.4359 48.8782 58.501C49.2737 57.3446 50.5839 56.3113 50.4108 55.3272C50.2131 54.1217 48.8782 53.3344 48.2602 52.5717C47.3456 51.4154 46.3074 50.6527 45.5905 51.0217C44.3298 51.6368 45.4916 51.2431 47.5186 50.8495C48.4333 50.6773 49.5209 50.4066 50.658 50.2344C51.7951 50.0622 52.8581 49.7424 53.8469 49.7178C55.1323 49.6932 56.2694 50.3082 56.9368 50.7019C58.0492 51.3661 58.5683 52.2764 58.9885 53.2114C59.4582 54.2447 59.9279 55.278 60.0268 56.3605C60.1256 57.5415 59.8784 58.747 60.002 59.9279C60.1256 61.1089 60.274 62.2898 60.3976 63.4707C60.5211 64.6517 60.1256 65.8818 60.2245 67.0627C60.3234 68.2437 60.8178 69.4 60.9414 70.5809C61.065 71.8111 61.7324 72.8198 61.4852 73.5579C61.1886 74.4928 60.9167 75.3539 60.5211 76.2888C60.2245 77.0023 59.211 77.5435 59.1121 78.7491C59.038 79.7086 59.5818 80.7665 59.6065 81.9474C59.6065 82.9562 59.4582 84.0387 59.5324 85.1458C59.5818 86.2037 60.0762 87.237 60.1504 88.3196C60.2245 89.4021 60.3481 90.4846 60.4223 91.5179C60.4964 92.6251 60.1998 93.7568 60.2492 94.7655C60.3234 95.9464 60.6942 97.0536 60.6942 97.9885C60.6942 99.071 59.5076 100.154 59.5324 101.236C59.5571 102.319 60.6695 103.376 60.6942 104.459C60.7189 105.542 60.0515 106.624 60.0762 107.707C60.1009 108.789 60.8425 109.847 60.8672 110.93C60.8919 112.012 60.5706 113.095 60.5706 114.177C60.5706 115.26 60.9167 116.342 60.8919 117.425C60.8672 118.507 59.656 119.565 59.6312 120.648C59.6065 121.73 60.3234 122.837 60.2492 123.92C60.1751 125.002 59.6807 126.036 59.5818 127.118C59.4829 128.201 59.1121 128.89 58.9885 129.972C57.8267 130.169 57.2582 131.325 56.2941 131.497C55.1076 131.694 54.0446 131.817 53.0805 131.965C51.8693 132.137 50.7322 131.596 49.7681 131.694C48.631 131.817 47.5928 131.965 46.5546 131.99C45.5163 132.014 44.4781 132.801 43.3163 132.777C42.3522 132.752 41.3387 131.694 40.1275 131.645C39.1634 131.596 38.0757 132.137 36.8645 132.088C35.8757 132.039 34.788 132.383 33.6262 132.334C32.6621 132.309 31.1543 132.039 30.6846 131.325C30.1407 130.538 31.4262 129.8 30.5857 128.127C30.0666 127.044 31.0801 125.642 32.3161 125.175C33.1813 124.855 34.4914 125.839 35.6285 125.765C36.7656 125.691 37.8533 124.904 38.7432 125.101C40.2263 124.929 40.1769 124.732 41.6354 124.436C42.2039 124.338 43.4152 124.461 44.4534 124.067C45.5658 123.649 47.0984 123.108 47.2962 122.64C47.7164 121.607 47.9883 120.451 48.2849 119.418C48.5816 118.384 48.8782 117.228 49.1007 116.145C49.3232 115.063 48.9524 113.857 49.0513 112.775C49.1501 111.692 48.631 110.561 48.6557 109.453C48.6805 108.346 48.8535 107.264 48.8041 106.181C48.7546 105.099 48.2602 104.041 48.1366 102.934C48.013 101.827 48.7052 100.646 48.5569 99.563C48.4085 98.4805 48.5321 97.3242 48.3591 96.2417C48.1861 95.1592 47.4692 94.1258 47.2962 93.0679C47.1231 92.01 47.0984 90.8537 46.9006 89.7711C46.7029 88.6886 46.5299 87.5815 46.3568 86.499C46.1838 85.4164 46.2332 84.2847 46.1343 83.2022C46.0355 82.1197 44.9972 81.0371 44.9725 79.9546C44.9478 78.8967 45.4175 77.8388 45.4669 76.8793C45.5163 75.8213 45.3927 74.788 45.4669 73.8285C45.5163 72.746 46.3321 71.7373 46.2827 70.8024C46.2085 69.7444 45.9366 68.7111 45.5658 67.8008C45.0714 66.6199 45.4175 65.685 45.986 64.5533C46.5051 63.5445 47.4198 62.7326 48.1861 61.7485C48.9524 60.7644 49.3232 59.4605 49.7928 58.4272C50.312 57.2954 50.1389 56.2867 49.5456 55.0812" fill="#181818"/>
<path d="M154.595 48.2513C155.354 47.0335 157.112 46.0157 157.758 44.7493C158.404 43.4828 158.188 41.8631 158.41 40.4407C158.583 39.2846 158.552 38.2093 158.382 37.0302C158.299 36.5658 158.242 35.9707 158.308 35.4916C158.372 35.0158 159.042 34.6843 159.483 34.4463C160.023 34.1528 161.027 33.8787 161.429 34.3399C161.835 34.8025 161.919 35.6177 162.079 36.2023C162.529 37.6278 162.965 39.1382 163.61 40.4478C164.101 41.4231 163.994 42.8715 164.681 43.7309C165.367 44.5903 166.484 44.9277 167.589 44.7094C168.698 44.4926 169.824 44.0355 170.801 43.4039C171.654 42.8601 172.437 41.5116 173.424 41.4309C174.412 41.3469 175.551 42.752 175.449 43.7264C175.364 44.4765 174.519 44.8307 173.858 45.2571C172.554 46.1365 171.152 46.5491 170.129 47.3142C169.043 48.1232 168.904 49.5734 168.401 51.1456C168.532 51.6623 170.396 53.7904 172.903 54.2963C174.417 54.5891 176.002 55.1252 176.94 56.3134C177.115 56.4719 176.777 57.0259 176.813 57.5447C176.848 58.0634 175.849 58.6897 175.358 58.78C174.867 58.8704 172.277 57.0462 171.781 56.891C169.689 56.1906 168.064 56.1725 166.626 55.9402C165.189 55.708 163.858 56.3123 161.686 57.0959C159.07 58.0417 159.116 58.1717 156.499 59.1207C153.883 60.0665 153.9 60.1092 151.283 61.0582C148.666 62.0073 148.647 61.9517 146.031 62.8975C143.415 63.8432 143.005 62.7098 140.386 63.6541C138.616 64.2892 137.003 65.3458 135.229 65.9553C133.455 66.5649 131.861 67.7951 130.061 68.3187C128.261 68.8423 126.379 69.2202 124.535 69.591C122.881 69.9222 121.106 69.4888 119.437 69.6639C117.768 69.8391 116.116 70.7135 114.438 70.7355C112.761 70.7575 111.104 69.7224 109.434 69.5823C107.764 69.4422 106.034 69.7679 104.382 69.4586C102.099 69.0065 99.6312 68.3285 97.9907 66.6554C98.9615 65.5018 100.519 65.0935 101.88 64.4746C103.241 63.8557 104.531 63.1744 105.953 62.8335C107.59 62.4321 109.2 61.9562 110.845 61.6254C112.491 61.2947 114.198 61.2776 115.852 60.99C117.507 60.7025 119.133 60.2532 120.791 59.9751C122.449 59.697 124.055 59.1211 125.711 58.8302C127.367 58.5394 128.947 57.905 130.594 57.571C132.253 57.2379 134.046 57.4941 135.698 57.0838C137.351 56.6734 138.791 55.5892 140.412 55.0788C142.034 54.5683 143.945 54.8874 145.52 54.255C147.096 53.6225 148.381 52.3335 149.893 51.5557C151.406 50.778 153.275 50.595 154.699 49.6572C154.918 49.5157 155.123 49.1404 155.217 48.8862C155.518 48.5558 155.357 52.1013 154.601 48.2461L154.595 48.2513Z" fill="#181818"/>
<path d="M26.0659 86.4392C25.8528 87.8581 24.6434 89.49 24.5531 90.9089C24.4628 92.3277 25.3041 93.7286 25.6651 95.1222C25.9648 96.2522 26.4197 97.227 27.0443 98.2415C27.3042 98.635 27.593 99.1586 27.723 99.6243C27.853 100.086 27.3692 100.657 27.0587 101.05C26.6796 101.534 25.8673 102.184 25.3149 101.92C24.7589 101.657 24.3582 100.942 23.9791 100.469C23.0007 99.3391 22.0006 98.126 20.8886 97.1801C20.051 96.4797 19.5744 95.1077 18.6032 94.5914C17.632 94.0752 16.4731 94.2087 15.5452 94.8478C14.6138 95.4868 13.7617 96.3533 13.1155 97.3209C12.5486 98.1585 12.3645 99.7073 11.4908 100.173C10.6171 100.642 9.0141 99.8048 8.72166 98.8697C8.50143 98.1477 9.13685 97.487 9.57371 96.8335C10.4221 95.5085 11.545 94.5734 12.1804 93.465C12.8555 92.2916 12.4078 90.9053 12.2454 89.2625C11.9204 88.8401 9.36431 87.627 6.86232 88.1578C5.3568 88.4899 3.68881 88.6271 2.35659 87.9087C2.13275 87.8328 2.223 87.1902 1.98472 86.7281C1.74644 86.2659 2.41435 85.2948 2.82955 85.0168C3.24474 84.7388 6.34604 85.385 6.86232 85.3309C9.06104 85.1431 10.5593 84.5149 11.971 84.1575C13.3826 83.8001 14.3647 82.717 16.0471 81.1356C18.0725 79.2293 17.9786 79.1283 20.004 77.2184C22.0295 75.3121 21.997 75.2796 24.0224 73.3697C26.0478 71.4598 26.0875 71.5032 28.1129 69.5969C30.1383 67.6906 30.9651 68.5679 32.9941 66.6617C34.3661 65.3764 35.4275 63.7661 36.8139 62.5025C38.2003 61.2389 39.1751 59.477 40.6192 58.282C42.0634 57.087 43.6411 55.993 45.1863 54.9208C46.5727 53.9604 48.3743 53.6535 49.8365 52.8304C51.2987 52.0072 52.4684 50.5486 53.9992 49.8626C55.53 49.1767 57.4616 49.4691 59.0501 48.9348C60.6387 48.4004 62.0973 47.4148 63.7364 47.0429C66.0109 46.5519 68.5454 46.1945 70.7152 47.079C70.282 48.5232 69.0147 49.516 68.0111 50.6244C67.0074 51.7328 66.094 52.8701 64.9242 53.7474C63.5812 54.7655 62.2923 55.8414 60.9131 56.7981C59.5339 57.7549 57.9743 58.4481 56.5698 59.3687C55.1654 60.2894 53.8512 61.3472 52.4396 62.2606C51.0279 63.174 49.7823 64.3402 48.3779 65.2644C46.9735 66.1887 45.7748 67.3982 44.3957 68.3585C43.0057 69.3225 41.2583 69.7991 39.9044 70.8316C38.5505 71.8642 37.6587 73.4311 36.3734 74.5431C35.0882 75.6551 33.2072 76.1208 32.0121 77.3267C30.8171 78.5325 30.1492 80.2258 29.0697 81.54C27.9902 82.8541 26.3475 83.764 25.4124 85.1901C25.268 85.4067 25.2282 85.8327 25.2427 86.1035C25.0983 86.5259 23.8383 83.208 26.0622 86.4465L26.0659 86.4392Z" fill="#181818"/>
<path d="M83.3218 23.5396L81.3195 16.4294L76.5981 12.0009L72.0249 7.42476L66.0922 4.81686L59.9123 3.02085L53.51 2.97165L47.1817 3.34069L41.1502 5.33352L34.9703 7.32635L30.5949 12.0993L26.1701 16.7L24.8105 22.9983L20.5587 28.3617L22.2891 34.8815L23.3273 40.9338L23.179 47.3059L27.3319 52.3987L28.024 58.82L31.6084 63.962L33.3635 70.2111L38.0108 74.615L41.6198 79.7078L45.0806 84.9974L49.8762 89.1061L54.7459 93.2393L58.8741 98.1353L63.2495 102.761L68.9844 105.91L73.6317 110.24L77.5869 115.48L83.2971 119.441L87.9197 114.349L92.3198 109.969L97.7086 106.722L102.257 102.515L106.756 98.2337L112.194 94.9123L114.444 88.491L120.846 85.9569L123.615 80.1507L126.556 74.6642L131.278 70.4571L134.442 65.1429L138.694 60.37L139.361 53.8749L141.734 48.2408L141.858 42.0655L144.033 36.1854L143.959 29.9609L141.833 24.1301L138.274 19.1357L135.406 13.6739L130.314 10.1557L125.691 5.48114L118.918 6.14541L113.035 3.78354L106.88 4.96448L100.774 5.94859L94.594 7.67078L89.1804 11.2874L84.632 16.0603L83.3218 23.5396Z" fill="#7B00FF"/>
<path d="M76.0067 48.0717L76.0103 48.0675L77.569 46.0277L85.3762 45.006L86.1443 46.0112L86.93 47.0393L87.7156 48.0675L88.5013 49.0957L89.2869 50.1238L90.0726 51.152L90.8582 52.1802L91.6439 53.2083L92.4251 54.2307L93.2082 56.2803C93.2099 56.2848 93.2123 56.289 93.2152 56.2928L93.9906 57.3076V60.3582L85.3817 71.6245L67.3927 64.4596L72.0854 52.1771L76.0067 48.0717Z" fill="#181818" stroke="#181818" stroke-width="0.1" stroke-linejoin="round"/>
<path d="M91.4402 43.6527C90.0798 44.0696 94.073 53.2973 92.7628 53.5503C91.478 53.7954 86.8716 47.1201 85.6534 47.9472C84.7902 48.5402 82.4349 47.639 81.4064 47.9472C79.9144 48.3939 78.3922 47.3061 77.1645 48.6139C76.6552 49.1517 76.0759 49.6679 75.6649 50.2593C74.9805 51.2948 74.4014 52.3975 73.9366 53.5503C73.4777 54.6729 72.6566 55.6531 72.5227 56.9144C72.4869 57.231 71.9748 57.1284 72.0077 57.5206C72.4418 58.9017 72.5935 60.4301 73.5345 61.6315C74.1951 62.4737 74.606 63.4812 75.5801 64.0999C76.0576 64.4513 76.6291 64.6484 77.2211 64.666C78.3039 64.6553 79.3714 64.6944 80.4194 65.0473C81.9716 65.5783 83.5614 66.0117 85.1223 66.5143C85.519 66.6438 85.9078 66.7242 86.263 67.114C86.7748 67.6922 87.5781 67.2447 88.2411 67.2298C90.1443 67.1901 91.9888 66.7424 93.8456 66.3297C94.1158 66.2871 94.3724 66.1785 94.5933 66.0133C95.5859 65.1481 96.6379 64.3636 97.8115 63.7568C98.7026 63.2972 99.5636 62.7114 100.271 62.0783C101.418 61.0579 102.471 59.8212 102.718 58.1657C102.742 57.986 102.625 57.794 102.572 57.5907C102.927 57.5591 103.133 57.5601 103.148 57.9858C103.214 59.4955 103.425 61.0033 102.843 62.478C102.543 63.1924 102.411 63.9662 102.457 64.7381C102.498 65.4762 102.104 66.1895 102.086 66.9953C102.054 67.9994 101.746 69.1292 100.822 69.797C100.38 70.1138 100.431 70.5738 100.225 70.9707C98.6493 71.7896 97.1499 72.8345 95.3972 73.2324C93.2383 73.7318 91.046 74.0649 88.8858 74.4936C87.9963 74.673 87.1314 75.047 86.2532 75.0894C85.1315 75.1272 84.0496 75.3098 82.9856 75.5838C81.9471 75.8499 80.8694 75.5191 79.8509 75.8694C79.7543 75.9099 79.6139 75.9682 79.5483 75.9325C78.8931 75.4974 78.1148 75.9136 77.4718 75.6383C76.0224 75.0217 74.5294 75.047 72.9983 75.1463C71.0343 75.2844 69.0229 74.628 67.2445 73.6609C66.4104 73.2099 65.4333 73.0504 64.5188 72.7619C64.05 72.6179 63.5816 72.4975 63.2897 72.0258C62.6562 71.0203 61.4487 70.8134 60.5757 70.1398C59.3706 69.2006 58.1048 68.3597 57.0448 67.2466C56.5387 66.7247 55.8324 66.4065 55.3079 65.8946C53.8009 64.4415 52.5904 62.7207 51.3733 61.0213C51.1852 60.7608 51.0294 60.4946 50.7906 60.2497C49.9717 59.3744 49.8157 58.2346 49.8286 57.0687C49.8307 56.9368 49.7979 56.9189 49.905 56.8192C51.0182 55.8351 51.9179 54.4735 53.5552 54.3521C54.1623 54.3197 54.7428 54.0802 55.2029 53.6725C56.3519 52.6213 57.8111 52.1568 59.0901 51.3561C59.1382 51.3241 59.1907 51.2778 59.237 51.2764C61.5426 51.1731 63.1091 49.5092 64.9351 48.4475C67.7865 46.7881 69.1527 46.6771 71.1747 46.0499C73.003 45.4803 74.8777 45.0341 76.738 44.6848C79.1992 44.2237 81.6555 43.5036 84.2033 43.5838C86.2809 42.8255 88.4104 43.5962 90.5004 43.372C90.8012 43.3396 91.1275 43.5489 91.4424 43.6456L91.4402 43.6527Z" fill="#DEDCFF"/>
<path d="M70.9646 48.0549C72.3444 48.4023 72.8104 48.2029 74.1317 48.3891C75.4273 48.5688 75.0969 46.791 76.3553 47.5553C77.2474 48.1037 81.8116 44.5417 82.8544 44.7974C84.3671 45.1679 84.9591 45.6191 86.2514 46.8629C86.7873 47.3741 86.2744 48.44 86.7148 49.0098C87.4507 50.0092 89.2025 50.5016 89.7251 51.6293C90.2403 52.7272 91.8258 53.0695 92.0235 54.3225C92.0752 54.6368 91.8655 55.1033 91.8525 55.4968C91.4888 56.8981 91.4147 58.4322 90.5357 59.6797C89.9186 60.5544 89.5592 61.5814 88.6177 62.2487C88.1586 62.6238 87.5978 62.8497 87.0075 62.8973C85.9255 62.9414 84.8613 63.0346 83.8326 63.4402C82.3093 64.0492 80.7435 64.5627 79.21 65.1437C78.8204 65.2932 78.4361 65.3932 78.1011 65.8005C77.6192 66.4039 76.7943 65.9977 76.1315 66.0164C74.2287 66.0733 72.3638 65.7197 70.4885 65.4016C70.2165 65.3727 69.9548 65.2773 69.7257 65.1235C68.6907 64.3098 67.6003 63.5796 66.3975 63.033C65.4842 62.6192 64.5947 62.0778 63.8566 61.4814C62.6591 60.5204 61.5451 59.3387 61.2145 57.6978C61.181 57.5196 61.2884 57.322 61.3306 57.1163C60.9752 57.1026 60.7691 57.114 60.7757 57.54C60.7867 59.0511 60.6516 60.5677 61.3077 62.011C61.6431 62.7093 61.8144 63.4754 61.808 64.2486C61.8037 64.9878 63.3769 65.1165 63.435 65.9204C63.5179 66.9215 63.8471 67.1461 64.804 67.7661C65.2611 68.0601 65.8735 68.2721 66.0992 68.6581C67.7141 69.396 68.1849 70.5888 69.9555 70.8973C72.137 71.2866 73.676 72.9849 75.8553 73.3036C76.7527 73.4376 77.6354 73.7673 78.5146 73.7651C79.6368 73.746 80.7265 73.8736 81.803 74.0932C82.8537 74.3064 83.9132 73.9214 84.9481 74.2196C85.0467 74.2552 85.1898 74.3063 85.2535 74.2673C85.8859 73.7995 86.6843 74.1757 87.3125 73.8681C88.7288 73.1789 90.2212 73.1285 91.7553 73.1501C93.7238 73.1884 95.6994 72.4308 97.4266 71.3749C98.2368 70.8821 99.2045 70.6733 100.103 70.3388C100.564 70.1713 101.026 70.0273 101.293 69.5414C101.875 68.505 103.071 68.2372 103.909 67.5202C105.065 66.5211 106.286 65.6171 107.288 64.4518C107.768 63.9049 108.457 63.5512 108.955 63.0134C110.386 61.4858 111.508 59.7058 112.638 57.9469C112.812 57.6771 112.954 57.4034 113.18 57.1467C113.954 56.231 114.052 55.0849 113.98 53.9211C113.971 53.7894 114.003 53.7699 113.891 53.6758C112.73 52.7494 111.762 51.4351 110.121 51.3969C109.513 51.3953 108.921 51.1856 108.441 50.8016C107.24 49.8101 105.759 49.4201 104.441 48.6853C104.392 48.6558 104.337 48.6122 104.291 48.6132C101.983 48.6268 100.334 47.0445 98.4567 46.0767C95.525 44.564 94.8302 44.1774 92.779 43.6536C90.9242 43.1773 88.4014 42.4725 86.5258 42.218C84.0444 41.8822 78.7977 44.0101 76.2572 44.2194C74.1439 43.5674 72.878 51.8632 70.7794 51.7452C70.4773 51.7281 68.6859 57.6009 69.7966 49.0005L70.9646 48.0549Z" fill="#DEDCFF"/>
</g>
<defs>
<clipPath id="clip0_292_146">
<rect width="179" height="134" fill="white"/>
</clipPath>
</defs>
</svg>
