<svg width="213" height="23" viewBox="0 0 213 23" fill="none" xmlns="http://www.w3.org/2000/svg">
<path d="M0.323 16.114H5.777C5.75 18.355 8.261 18.922 11.231 18.922C14.552 18.922 16.874 18.112 16.874 16.546C16.874 11.956 0.674 17.41 0.674 9.013C0.674 5.368 4.832 3.289 11.474 3.289C17.063 3.289 21.842 4.747 21.788 9.742H16.712C16.712 7.258 14.282 6.664 11.474 6.664C8.666 6.664 5.993 7.258 5.993 9.31C5.993 13.603 22.058 8.986 22.058 16.573C22.058 20.542 16.388 22.378 11.258 22.378C1.511 22.378 0.323 18.139 0.323 16.114ZM23.774 14.44C23.774 9.337 28.985 6.394 34.169 6.394C39.245 6.394 44.105 9.175 44.105 14.44C44.105 19.651 39.11 22.432 34.007 22.432C28.85 22.432 23.774 19.597 23.774 14.44ZM33.953 9.256C30.686 9.256 28.958 11.821 28.958 14.44C28.958 17.41 31.01 19.786 33.953 19.786C36.896 19.786 38.921 17.41 38.921 14.44C38.921 11.524 37.193 9.256 33.953 9.256ZM46.1781 6.826H51.0651L51.0381 15.304C51.0381 17.896 52.9281 19.705 55.6281 19.705C59.9481 19.705 61.9731 16.033 61.9731 14.575L62.0001 6.826H66.9681V22.027H62.0001V18.76C60.8661 20.461 58.3011 22.216 54.5481 22.216C50.8221 22.216 46.1781 20.11 46.1781 15.304V6.826ZM70.6833 6.799H75.6513V10.174C77.4333 8.473 79.8903 7.285 82.5903 7.285C87.2073 7.285 91.4733 9.337 91.4733 14.116V22.027H86.5863V14.116C86.5863 13.144 85.8843 9.985 81.6453 9.985C78.2973 9.985 76.0563 12.469 75.6513 14.737V22.027H70.6833V6.799ZM93.5416 14.656C93.5416 10.012 97.7266 7.285 103.019 7.285C106.016 7.285 109.688 8.986 111.227 10.768V0.939999H116.222V22H111.227V18.787C109.391 21.271 106.34 22.243 103.343 22.243C97.7266 22.243 93.5416 18.733 93.5416 14.656ZM98.5636 14.656C98.5636 17.95 101.453 19.462 104.963 19.462C108.608 19.462 111.227 16.654 111.227 14.899C111.227 12.658 108.5 9.985 104.369 9.985C100.724 9.985 98.5636 11.74 98.5636 14.656ZM126.199 22L118.153 3.667H123.094L128.71 16.411L132.922 3.667H137.782L141.913 16.411L146.989 3.667H151.849L144.559 22H139.402L135.379 9.04L131.059 22H126.199ZM150.708 17.572C150.708 14.305 154.623 12.631 158.268 12.631C161.211 12.631 164.262 13.738 166.233 15.061C166.233 14.251 166.26 13.792 166.26 13.468C166.26 11.254 165.342 10.417 163.641 10.417H156.189L154.812 6.853H166.314C169.851 7.582 171.201 9.985 171.228 13.63V22.027H166.233V19.678C164.451 21.163 160.563 22.189 157.836 22.189C154.731 22.189 150.708 20.893 150.708 17.572ZM159.672 15.061C157.836 15.061 155.676 15.601 155.676 17.491C155.676 19.516 158.079 19.867 159.483 19.867C162.777 19.867 165.585 17.977 166.233 17.545V17.275C165.882 17.032 163.182 15.061 159.672 15.061ZM172.308 6.34H177.573L181.947 19.678L186.402 6.34H191.559L185.295 22H178.248L172.308 6.34ZM202.266 22.351C196.677 22.351 192.033 19.327 192.033 14.602C192.033 9.85 196.812 6.799 202.401 6.799C207.531 6.799 212.31 9.31 212.337 14.656C212.337 15.088 212.283 15.547 212.175 15.952C210.663 15.952 199.107 16.006 197.379 16.006C197.46 18.085 199.404 19.813 202.212 19.813C204.156 19.813 206.046 19.111 207.288 17.761L211.176 18.409C209.826 20.812 206.37 22.351 202.266 22.351ZM202.212 9.499C199.053 9.499 197.271 11.821 197.298 14.062L207.072 14.035C207.072 11.362 205.074 9.499 202.212 9.499Z" fill="url(#paint0_linear_304_5)"/>
<defs>
<linearGradient id="paint0_linear_304_5" x1="-1" y1="12.5" x2="219" y2="12.5" gradientUnits="userSpaceOnUse">
<stop stop-color="#7B00FF"/>
<stop offset="1" stop-color="#9718FF"/>
</linearGradient>
</defs>
</svg>
