<svg width="407" height="370" viewBox="0 0 407 370" fill="none" xmlns="http://www.w3.org/2000/svg">
<path d="M328.02 153.374C325.541 150.25 323.139 146.891 322.132 143.923C320.893 140.252 324.766 136.347 325.308 133.223C325.928 129.396 324.999 125.334 326.935 122.913C329.801 119.242 333.907 118.149 336.153 119.32C340.104 121.273 336.463 120.96 330.111 119.711C327.245 119.164 323.837 118.695 320.351 118.149C316.865 117.602 313.611 117.914 310.513 117.836C306.485 117.758 302.922 116.586 300.83 117.836C297.344 119.945 294.788 122.522 293.471 125.412C291.999 128.693 292.697 132.598 292.387 135.957C292.077 139.706 290.528 143.377 290.218 147.126C289.908 150.875 289.676 154.624 289.366 158.373C289.056 162.122 287.119 165.715 286.732 169.464C286.345 173.213 287.197 177.04 286.887 180.789C286.5 184.694 289.366 187.037 290.063 189.302C290.992 192.27 293.161 194.067 294.401 197.035C295.33 199.3 293.781 202.971 294.091 206.798C294.323 209.844 296.105 213.281 296.027 217.03C296.027 220.232 295.175 223.669 294.943 227.261C294.788 230.62 295.795 234.135 295.563 237.571C295.33 241.008 295.098 244.445 294.866 247.803C294.633 251.318 293.161 254.676 292.929 257.879C292.697 261.628 293.626 264.986 293.626 267.954C293.626 271.391 289.83 274.749 289.753 278.186C289.676 281.623 293.084 285.059 293.084 288.496C293.084 291.932 290.837 295.291 290.76 298.728C290.683 302.164 292.929 305.601 292.929 309.037C292.929 312.474 290.76 315.976 290.76 319.413C290.76 322.85 290.683 326.277 290.76 329.713C290.837 333.15 291.69 336.482 291.844 339.919C291.999 343.355 292.232 346.606 292.464 350.043C292.697 353.479 291.535 356.994 291.844 360.353C292.154 363.711 291.38 363.526 291.844 366.963C295.485 367.588 300.411 365.445 303.432 365.992C307.15 366.617 310.758 365.523 313.702 365.992C317.498 366.539 324.611 365.68 327.632 365.992C331.196 366.383 337.836 365.914 341.089 365.992C344.343 366.07 350.019 364.219 353.66 364.141C356.681 364.063 357.834 364.297 361.63 364.141C364.651 363.985 364.681 364.297 368.477 364.141C371.575 363.985 371.605 364.219 375.324 364.141C378.345 364.063 375.039 362.618 376.589 360.353C378.293 357.853 372.69 357.752 375.324 352.363C376.95 348.926 375.851 343.625 371.9 342.141C369.189 341.126 368.539 340.045 365.053 339.889C361.568 339.733 360.995 339.264 358.207 339.889C353.559 339.342 352.507 340.826 347.936 339.889C346.155 339.577 344.265 339.906 341.089 338.734C337.604 337.406 338.286 340.296 337.666 338.734C336.349 335.454 336.928 335.2 335.998 331.92C335.069 328.639 331.516 328.542 330.819 325.105C330.122 321.668 327.706 314.913 327.396 311.476C327.086 308.039 327.473 304.769 327.396 301.254C327.318 297.74 327.163 294.547 327.396 291.033C327.628 287.518 329.724 287.733 330.111 284.218C330.498 280.703 327.167 276.233 327.632 272.797C328.097 269.36 329.569 266.002 330.111 262.565C330.653 259.128 329.646 255.379 330.266 251.943C330.886 248.506 332.048 245.069 332.59 241.711C333.132 238.352 333.674 234.759 334.139 231.323C334.604 227.886 335.688 224.372 335.998 221.013C336.308 217.654 333.674 213.827 333.752 210.469C333.829 207.11 335.224 203.986 335.069 200.862C334.914 197.503 334.139 194.301 333.984 191.255C333.829 187.818 336.231 184.616 336.463 181.57C336.695 178.211 336.928 175.243 338.09 172.432C339.639 168.683 339.019 164.309 337.238 160.716C335.611 157.514 333.597 153.843 331.196 150.718C328.794 147.594 325.153 145.329 323.759 142.127C322.132 138.534 320.583 134.473 322.442 130.645" fill="white"/>
<path d="M126.946 153.315C129.559 150.247 130.457 147.563 131.518 144.648C132.825 141.043 137.152 137.821 136.581 134.753C135.927 130.995 131.518 128.54 129.477 126.163C126.456 122.558 123.027 120.18 120.659 121.33C116.494 123.248 120.332 122.021 127.027 120.793C130.048 120.257 133.641 119.413 137.397 118.876C141.153 118.339 144.664 117.342 147.93 117.265C152.176 117.188 155.932 119.106 158.136 120.333C161.811 122.404 163.525 125.242 164.913 128.157C166.465 131.378 168.016 134.6 168.343 137.975C168.669 141.656 167.853 145.415 168.261 149.097C168.669 152.778 169.159 156.46 169.567 160.142C169.976 163.823 168.669 167.659 168.996 171.34C169.323 175.022 170.956 178.627 171.364 182.309C171.772 186.144 173.977 189.289 173.16 191.59C172.18 194.504 171.282 197.189 169.976 200.104C168.996 202.328 165.648 204.015 165.322 207.774C165.077 210.765 166.873 214.063 166.955 217.745C166.955 220.89 166.465 224.265 166.71 227.716C166.873 231.015 168.506 234.236 168.751 237.611C168.996 240.986 169.404 244.361 169.649 247.582C169.894 251.034 168.914 254.562 169.078 257.707C169.323 261.389 170.547 264.84 170.547 267.755C170.547 271.13 166.628 274.505 166.71 277.88C166.791 281.255 170.466 284.553 170.547 287.928C170.629 291.303 168.424 294.677 168.506 298.052C168.588 301.427 171.037 304.725 171.119 308.1C171.201 311.475 170.139 314.85 170.139 318.225C170.139 321.6 171.282 324.975 171.201 328.35C171.119 331.725 167.118 335.023 167.036 338.398C166.955 341.773 169.323 345.224 169.078 348.599C168.833 351.974 167.2 355.196 166.873 358.57C166.546 361.945 164.415 363.125 164.007 366.5C160.169 367.114 159.191 367.463 156.007 368C152.088 368.614 150.691 368.54 147.507 369C143.506 369.537 141.191 367.693 138.007 368C134.251 368.384 131.936 368.923 128.507 369C125.078 369.077 120.844 369.476 117.007 369.399C113.822 369.323 112.296 367.621 108.295 367.468C105.11 367.315 102.025 369.553 98.0245 369.399C94.7584 369.246 91.5918 369.153 87.7542 369C84.3291 368 83.5582 365.224 82.0068 363C80.2105 360.546 83.6819 364.393 80.9057 359.178C79.1911 355.803 80.2466 350.413 84.3291 348.956C87.1869 347.959 83.9982 345.779 87.7542 345.549C91.5101 345.318 95.085 344.935 98.0245 345.549C102.924 345.012 103.477 345.531 108.295 344.611C110.173 344.304 111.712 343.369 115.142 342.141C118.816 340.837 124.759 340.191 125.412 338.734C126.8 335.513 128.579 337.784 129.559 334.563C130.538 331.341 131.518 327.736 132.253 324.361C132.988 320.986 131.763 317.228 132.09 313.853C132.416 310.478 130.702 306.95 130.783 303.498C130.865 300.047 131.437 296.672 131.273 293.297C131.11 289.922 129.477 286.624 129.069 283.172C128.66 279.721 130.947 276.039 130.457 272.664C129.967 269.289 130.375 265.684 129.804 262.309C129.232 258.934 126.864 255.713 126.293 252.415C125.721 249.116 125.639 245.511 124.986 242.136C124.333 238.762 123.761 235.31 123.19 231.935C122.618 228.56 122.782 225.032 122.455 221.657C122.128 218.282 118.699 214.907 118.617 211.532C118.536 208.234 120.087 204.936 120.25 201.944C120.414 198.646 120.005 195.425 120.25 192.433C120.414 189.058 123.108 185.914 122.945 182.999C122.7 179.701 121.802 176.479 120.577 173.641C118.944 169.96 120.087 167.045 121.965 163.517C123.68 160.372 126.701 157.841 129.232 154.773C131.763 151.704 132.988 147.639 134.539 144.418C136.254 140.889 135.682 137.745 133.723 133.986" fill="white"/>
<path d="M228.114 49.1179L221.713 33.9717L207.313 21.0164L193.366 7.62924L175.272 0H145.952L128.835 4.82357L111.718 4.82388L91.1775 11.6384L77.4838 25.2674L70.637 35.4891L63.7901 49.1181L60.3667 62.7471L46.6748 76.3761L53.521 93.4123L56.9445 110.449L53.5217 124.078L57.0598 139.198L67.2153 154.743L70.1024 173.025L75.4551 191.307L89.6286 204.19L100.636 219.089L111.19 234.563L125.816 246.583L140.668 258.674L153.258 272.997L166.602 286.528L184.093 295.741L198.267 308.408L210.329 323.739L227.744 335.327L245.232 321.698L258.925 311.476L271.697 298.116L287.644 286.528L299.29 273.285L315.876 263.569L327.394 246.738L342.263 237.37L350.707 220.384L359.678 204.334L374.078 192.027L383.728 176.48L396.695 162.517L398.73 143.516L405.968 127.034L406.345 108.969L406.132 93.4121V76.3759L399.286 59.3396L389.015 45.7107L382.169 35.4889L368.475 21.8599L354.781 11.6382L336.382 3.88659H317.123L300.006 8.23094L279.466 11.6382L262.349 15.0454L248.655 21.8599L239.236 33.9717L228.114 49.1179Z" fill="white"/>
<path d="M326.321 169.213C324.13 166.487 322.008 163.557 321.117 160.967C320.022 157.764 323.445 154.357 323.925 151.631C324.472 148.292 323.651 144.749 325.363 142.636C327.896 139.433 331.525 138.479 333.51 139.501C337.002 141.205 333.784 140.932 328.17 139.842C325.636 139.365 322.624 138.956 319.543 138.479C316.462 138.002 313.586 138.275 310.847 138.207C307.287 138.138 304.137 137.116 302.289 138.207C299.208 140.047 296.948 142.295 295.784 144.817C294.483 147.679 295.099 151.086 294.826 154.016C294.552 157.287 293.182 160.49 292.908 163.761C292.635 167.032 292.429 170.303 292.155 173.574C291.881 176.845 290.17 179.979 289.827 183.25C289.485 186.521 290.238 189.861 289.964 193.131C289.622 196.539 292.155 198.583 292.772 200.559C293.593 203.149 295.51 204.716 296.606 207.306C297.427 209.282 296.058 212.485 296.332 215.824C296.537 218.481 298.112 221.48 298.044 224.751C298.044 227.545 297.29 230.543 297.085 233.678C296.948 236.608 297.838 239.674 297.633 242.673C297.427 245.671 297.222 248.67 297.017 251.6C296.811 254.666 295.51 257.597 295.305 260.391C295.099 263.661 295.921 266.592 295.921 269.181C295.921 272.18 292.566 275.11 292.498 278.108C292.429 281.107 295.442 284.105 295.442 287.103C295.442 290.102 293.456 293.032 293.388 296.03C293.319 299.029 295.305 302.027 295.305 305.025C295.305 308.024 294.346 310.954 294.346 313.952C294.346 316.951 295.305 319.881 295.373 322.879C295.442 325.878 292.155 328.944 292.292 331.943C292.429 334.941 294.689 337.803 294.894 340.802C295.099 343.8 294.072 346.866 294.346 349.797C294.62 352.727 294.209 356.747 294.62 359.746C297.838 360.291 302.083 358.11 304.754 358.587C308.04 359.133 310.916 359.678 313.517 360.087C316.872 360.564 319.474 362.812 322.145 363.085C325.294 363.426 328.238 363.358 331.114 363.426C333.99 363.494 336.728 361.245 339.946 361.177C342.617 361.109 345.629 363.766 348.984 363.63C351.654 363.494 354.53 361.79 357.885 361.654C360.624 361.518 363.568 360.359 366.854 360.291C369.525 360.223 372.811 362.676 374.181 360.7C375.687 358.519 370.552 355.93 372.88 351.228C374.317 348.229 373.222 347.82 369.73 346.526C367.334 345.64 364.732 341.824 361.651 341.687C358.57 341.551 355.215 344.209 352.75 344.754C348.642 344.277 348.642 344.004 344.602 343.187C343.027 342.914 340.357 340.87 337.55 339.848C334.469 338.689 332.963 337.326 332.415 335.963C331.251 333.101 329.95 330.444 329.128 327.581C328.307 324.719 327.69 321.789 327.074 318.791C326.458 315.792 324.678 312.998 324.404 310C324.13 307.002 322.35 303.935 322.281 300.869C322.213 297.802 322.829 294.667 323.035 291.601C323.24 288.534 322.281 285.332 322.624 282.265C322.966 279.199 325.568 276.405 325.979 273.406C326.39 270.408 327.69 267.478 328.17 264.479C328.649 261.481 327.759 258.21 328.307 255.212C328.854 252.213 329.881 249.215 330.361 246.285C330.84 243.354 331.319 240.22 331.73 237.221C332.141 234.223 333.099 231.156 333.373 228.226C333.647 225.296 331.319 221.957 331.388 219.027C331.456 216.096 332.689 213.371 332.552 210.645C332.415 207.714 331.73 204.921 331.593 202.263C331.456 199.265 333.579 196.471 333.784 193.813C333.99 190.883 334.195 188.293 335.222 185.84C336.591 182.569 336.044 178.753 334.469 175.618C333.031 172.824 331.251 169.621 329.128 166.896C327.006 164.17 323.788 162.194 322.555 159.4C321.117 156.265 319.748 152.722 321.391 149.382" fill="black"/>
<path d="M131.549 169.737C133.74 167.011 134.493 164.626 135.383 162.036C136.478 158.833 140.107 155.971 139.628 153.246C139.08 149.906 135.383 147.726 133.671 145.613C131.138 142.411 128.262 140.298 126.277 141.32C122.785 143.024 126.003 141.934 131.617 140.843C134.15 140.366 137.163 139.617 140.313 139.14C143.462 138.663 146.406 137.777 149.145 137.709C152.705 137.64 155.855 139.344 157.704 140.434C160.785 142.274 162.222 144.796 163.386 147.385C164.687 150.247 165.988 153.109 166.262 156.108C166.536 159.379 165.851 162.718 166.194 165.989C166.536 169.26 166.947 172.531 167.289 175.802C167.631 179.073 166.536 182.48 166.81 185.751C167.084 189.022 168.453 192.224 168.795 195.495C169.138 198.903 170.986 201.697 170.302 203.741C169.48 206.33 168.727 208.716 167.631 211.305C166.81 213.281 164.003 214.78 163.729 218.12C163.523 220.777 165.03 223.707 165.098 226.978C165.098 229.772 164.687 232.771 164.893 235.837C165.03 238.767 166.399 241.63 166.604 244.628C166.81 247.626 167.152 250.625 167.358 253.487C167.563 256.553 166.741 259.688 166.878 262.482C167.084 265.753 168.111 268.819 168.111 271.409C168.111 274.407 164.824 277.406 164.893 280.404C164.961 283.402 168.042 286.333 168.111 289.331C168.179 292.329 166.331 295.328 166.399 298.326C166.468 301.325 168.522 304.255 168.59 307.253C168.659 310.252 167.768 313.25 167.768 316.248C167.768 319.247 168.727 322.245 168.659 325.243C168.59 328.242 165.235 331.172 165.167 334.17C165.098 337.169 167.084 340.235 166.878 343.234C166.673 346.232 165.304 349.094 165.03 352.093C164.756 355.091 163.729 356.999 163.386 359.997C160.168 360.542 158.594 363.745 155.923 364.222C152.637 364.767 149.693 365.108 147.022 365.517C143.668 365.994 140.518 364.495 137.848 364.767C134.698 365.108 131.822 365.517 128.947 365.585C126.071 365.653 123.195 367.834 119.977 367.766C117.307 367.698 114.5 364.767 111.145 364.631C108.475 364.495 105.462 365.994 102.107 365.858C99.3684 365.722 96.3558 366.676 93.1378 366.539C90.4675 366.471 86.291 365.722 84.9901 363.745C83.4838 361.565 87.0441 359.52 84.7162 354.886C83.2783 351.888 86.0856 348.004 89.509 346.709C91.9054 345.823 95.5342 348.549 98.6838 348.345C101.833 348.14 104.846 345.959 107.311 346.505C111.419 346.028 111.282 345.482 115.322 344.665C116.896 344.392 120.251 344.733 123.127 343.643C126.208 342.484 130.453 340.985 131.001 339.69C132.165 336.828 132.918 333.625 133.74 330.763C134.561 327.901 135.383 324.698 135.999 321.7C136.615 318.702 135.588 315.362 135.862 312.364C136.136 309.366 134.698 306.231 134.767 303.164C134.835 300.098 135.314 297.1 135.177 294.101C135.041 291.103 133.671 288.173 133.329 285.106C132.986 282.04 134.904 278.769 134.493 275.77C134.082 272.772 134.424 269.569 133.945 266.571C133.466 263.572 131.48 260.71 131.001 257.78C130.522 254.85 130.453 251.647 129.905 248.649C129.358 245.65 128.878 242.584 128.399 239.585C127.92 236.587 128.057 233.452 127.783 230.454C127.509 227.455 124.633 224.457 124.565 221.459C124.496 218.528 125.797 215.598 125.934 212.941C126.071 210.01 125.729 207.148 125.934 204.491C126.071 201.492 128.331 198.698 128.194 196.109C127.988 193.179 127.235 190.316 126.208 187.795C124.839 184.524 125.797 181.935 127.372 178.8C128.81 176.006 131.343 173.757 133.466 171.031C135.588 168.306 136.615 164.694 137.916 161.832C139.354 158.697 138.875 155.903 137.232 152.564" fill="black"/>
<path d="M73.9573 243.95C72.8673 252.64 68.4573 249.92 71.2473 258.43C72.4073 261.92 75.0473 270.62 77.2973 273.79C78.2373 275.02 79.0673 278.73 79.5673 280.16C80.0673 281.59 78.7473 282.94 77.7473 284.09C76.5273 285.51 73.6073 285.33 71.6873 284.45C69.7673 283.57 68.3173 282.72 67.8373 282.27C64.3773 278.69 61.6173 275.17 57.7273 272.14C54.7973 269.89 52.7073 265.13 49.3473 263.42C45.9873 261.71 46.3373 263.88 43.2673 265.71C40.1973 267.54 37.7273 273.34 35.6573 276.2C33.8373 278.68 32.6173 279.23 29.7173 280.55C26.8173 281.87 22.0573 276.99 20.9473 274.09C20.1073 271.86 25.2673 265.09 26.6573 263.15C32.2173 255.05 33.4573 256.46 31.9673 246.67C30.8073 245.33 27.7473 244.4 19.3373 245.69C14.2773 246.51 7.5973 247.74 2.9873 245.38C2.2173 245.12 1.0173 244.1 0.147301 242.66C-0.722699 241.22 2.4873 236.53 3.8573 235.73C5.2273 234.93 10.0373 234.18 11.7873 234.08C18.9573 233.8 22.6673 231.58 26.0173 230.89C29.6473 230.14 31.5973 227.6 37.2973 222.84C42.4173 218.48 43.5473 219.8 48.6373 215.41C53.7273 211.02 54.0173 211.35 59.1173 206.96C64.2173 202.57 62.8473 200.99 67.9473 196.6C73.0473 192.21 75.9068 187.4 81.0068 183C86.1068 178.6 84.0473 184.37 88.9773 179.8C91.9973 176.35 96.7373 174.21 99.5773 170.46C102.417 166.71 102.677 160.88 106.037 157.62C109.397 154.36 113.877 152.57 118.317 150.49C122.147 148.69 126.737 147.82 131.917 147.27C135.197 143.84 137.757 139.37 141.477 136.8C145.197 134.23 150.697 134.28 154.927 132.5C159.157 130.72 162.767 126.44 167.307 125.5C171.847 124.56 176.807 127.21 181.467 127.06C186.127 126.91 190.557 124.75 195.207 125.3C202.857 124.1 197.997 126.23 205.467 129.2C197.317 131.25 200.047 132.96 198.797 146.52C194.027 147.49 190.807 147.59 186.847 148.91C182.227 150.44 179.317 155.17 175.587 157.07C171.317 159.25 167.577 161.31 164.127 163.83C160.357 166.57 157.587 169.98 154.327 172.93C151.067 175.88 145.997 177.15 142.677 180.2C139.357 183.25 137.467 188.02 133.757 190.81C129.497 193.38 123.527 192.82 119.657 195.21C115.477 197.8 112.087 201.35 108.297 203.97C104.507 206.59 101.257 210.43 97.6473 213.5C94.0373 216.57 89.5573 218.66 86.2673 222.28C83.2173 225.63 81.5573 230.39 78.6673 234.49C78.2073 235.14 75.6173 237.37 75.7073 238.2C75.2773 239.47 74.3073 242.86 73.9573 243.91V243.95Z" fill="white"/>
<path d="M72.197 239.42C71.607 243.35 68.257 247.87 68.007 251.8C67.757 255.73 70.087 259.61 71.087 263.47C71.917 266.6 73.177 269.3 74.907 272.11C75.627 273.2 76.427 274.65 76.787 275.94C77.147 277.22 75.807 278.8 74.947 279.89C73.897 281.23 71.647 283.03 70.117 282.3C68.577 281.57 67.467 279.59 66.417 278.28C63.707 275.15 60.937 271.79 57.857 269.17C55.537 267.23 54.217 263.43 51.527 262C48.837 260.57 45.627 260.94 43.057 262.71C40.477 264.48 38.117 266.88 36.327 269.56C34.757 271.88 34.247 276.17 31.827 277.46C29.407 278.76 24.967 276.44 24.157 273.85C23.547 271.85 25.307 270.02 26.517 268.21C28.867 264.54 31.977 261.95 33.737 258.88C35.607 255.63 34.367 251.79 33.917 247.24C33.017 246.07 25.937 242.71 19.007 244.18C14.837 245.1 10.217 245.48 6.52697 243.49C5.90697 243.28 6.15697 241.5 5.49697 240.22C4.83697 238.94 6.68697 236.25 7.83697 235.48C8.98697 234.71 17.577 236.5 19.007 236.35C25.097 235.83 29.247 234.09 33.157 233.1C37.067 232.11 39.787 229.11 44.447 224.73C50.057 219.45 49.797 219.17 55.407 213.88C61.017 208.6 60.927 208.51 66.537 203.22C72.147 197.93 72.257 198.05 77.867 192.77C83.477 187.49 85.767 189.92 91.387 184.64C95.187 181.08 98.127 176.62 101.967 173.12C105.807 169.62 108.507 164.74 112.507 161.43C116.507 158.12 120.877 155.09 125.157 152.12C128.997 149.46 133.987 148.61 138.037 146.33C142.087 144.05 145.327 140.01 149.567 138.11C153.807 136.21 159.157 137.02 163.557 135.54C167.957 134.06 171.997 131.33 176.537 130.3C182.837 128.94 189.857 127.95 195.867 130.4C194.667 134.4 191.157 137.15 188.377 140.22C185.597 143.29 183.067 146.44 179.827 148.87C176.107 151.69 172.537 154.67 168.717 157.32C164.897 159.97 160.577 161.89 156.687 164.44C152.797 166.99 149.157 169.92 145.247 172.45C141.337 174.98 137.887 178.21 133.997 180.77C130.107 183.33 126.787 186.68 122.967 189.34C119.117 192.01 114.277 193.33 110.527 196.19C106.777 199.05 104.307 203.39 100.747 206.47C97.187 209.55 91.977 210.84 88.667 214.18C85.357 217.52 83.507 222.21 80.517 225.85C77.527 229.49 72.977 232.01 70.387 235.96C69.987 236.56 69.877 237.74 69.917 238.49C69.517 239.66 66.027 230.47 72.187 239.44L72.197 239.42Z" fill="black"/>
<path d="M230.785 65.2001L225.239 45.5062L212.161 33.2402L199.495 20.5652L183.062 13.3418L165.945 8.36725L148.212 8.23096L130.684 9.25313L113.978 14.7729L96.8605 20.2926L84.7416 33.5127L72.4857 46.2558L68.7199 63.7009L56.9434 78.5565L61.7362 96.6149L64.6118 113.379L64.201 131.028L75.7037 145.134L77.6208 162.92L87.5488 177.162L92.41 194.471L105.282 206.669L115.278 220.775L124.864 235.426L138.147 246.806L151.635 258.255L163.069 271.816L175.188 284.627L191.073 293.349L203.945 305.343L214.9 319.858L230.716 330.829L243.52 316.723L255.707 304.593L270.633 295.598L283.232 283.945L295.693 272.088L310.756 262.889L316.987 245.103L334.72 238.084L342.388 222.002L350.536 206.805L363.614 195.153L372.378 180.433L384.154 167.213L386.003 149.223L392.576 133.618L392.918 116.513L398.943 100.227L398.738 82.986L392.85 66.8356L382.99 53.0022L375.048 37.874L360.943 28.1293L348.14 15.1817L329.379 17.0217L313.084 10.4797L296.035 13.7507L279.124 16.4765L262.006 21.2466L247.012 31.2639L234.414 44.4841L230.785 65.2001Z" fill="#7B00FF"/>
<path d="M258.251 155.854C258.253 155.859 258.255 155.863 258.258 155.867L260.424 158.701V167.211L236.52 198.493L186.551 178.591L199.586 144.472L210.46 133.088L210.46 133.088L210.463 133.084L214.803 127.405L236.515 124.564L238.673 127.388L240.849 130.236L243.025 133.084L245.201 135.932L247.377 138.78L249.554 141.628L251.73 144.475L253.906 147.323L256.078 150.165L258.251 155.854Z" fill="black" stroke="black" stroke-width="0.1" stroke-linejoin="round"/>
<path d="M253.272 120.909C249.504 122.064 260.564 147.623 256.935 148.324C253.376 149.003 240.617 130.513 237.243 132.804C234.852 134.447 228.329 131.951 225.48 132.804C221.347 134.042 217.131 131.029 213.731 134.651C212.32 136.14 210.715 137.57 209.577 139.208C207.681 142.076 206.077 145.131 204.79 148.324C203.519 151.433 201.245 154.148 200.874 157.642C200.775 158.518 199.356 158.234 199.447 159.321C200.65 163.146 201.07 167.379 203.676 170.707C205.506 173.04 206.644 175.83 209.342 177.544C210.665 178.517 212.248 179.063 213.887 179.112C216.887 179.082 219.843 179.191 222.746 180.168C227.045 181.639 231.449 182.839 235.772 184.231C236.871 184.59 237.948 184.813 238.932 185.892C240.349 187.494 242.574 186.254 244.41 186.213C249.682 186.103 254.791 184.863 259.934 183.72C260.682 183.602 261.393 183.301 262.005 182.844C264.754 180.447 267.668 178.274 270.919 176.594C273.387 175.321 275.772 173.698 277.73 171.945C280.908 169.118 283.824 165.693 284.508 161.107C284.576 160.61 284.251 160.078 284.106 159.515C285.087 159.427 285.658 159.43 285.7 160.609C285.881 164.791 286.468 168.967 284.855 173.052C284.025 175.03 283.659 177.174 283.785 179.312C283.9 181.356 282.807 183.332 282.759 185.564C282.67 188.345 281.817 191.474 279.257 193.324C278.034 194.201 278.173 195.475 277.603 196.575C273.239 198.843 269.086 201.737 264.232 202.839C258.252 204.222 252.18 205.145 246.196 206.333C243.733 206.829 241.337 207.865 238.905 207.983C235.798 208.087 232.801 208.593 229.854 209.352C226.977 210.089 223.992 209.173 221.172 210.143C220.904 210.255 220.515 210.417 220.333 210.318C218.519 209.113 216.363 210.266 214.582 209.503C210.567 207.795 206.432 207.865 202.191 208.141C196.751 208.523 191.18 206.705 186.254 204.026C183.944 202.777 181.238 202.335 178.705 201.536C177.406 201.137 176.109 200.804 175.3 199.497C173.546 196.712 170.201 196.139 167.783 194.273C164.445 191.672 160.939 189.343 158.003 186.26C156.601 184.814 154.645 183.933 153.192 182.515C149.018 178.49 145.665 173.724 142.294 169.017C141.773 168.295 141.342 167.558 140.68 166.88C138.412 164.455 137.98 161.298 138.015 158.069C138.021 157.704 137.931 157.654 138.227 157.378C141.311 154.652 143.802 150.881 148.337 150.545C150.019 150.455 151.627 149.792 152.901 148.662C156.084 145.751 160.126 144.464 163.668 142.246C163.801 142.158 163.947 142.029 164.075 142.026C170.461 141.739 174.8 137.131 179.858 134.19C187.755 129.594 191.539 129.286 197.14 127.549C202.204 125.971 207.397 124.735 212.549 123.768C219.366 122.491 226.17 120.496 233.227 120.719C238.981 118.618 244.88 120.753 250.668 120.132C251.502 120.042 252.405 120.622 253.278 120.89L253.272 120.909Z" fill="white"/>
<path d="M196.558 133.102C200.38 134.065 201.671 133.513 205.33 134.028C208.919 134.526 208.004 129.602 211.489 131.719C213.96 133.238 226.602 123.372 229.491 124.08C233.68 125.106 235.32 126.356 238.9 129.801C240.384 131.217 238.963 134.169 240.183 135.747C242.221 138.516 247.074 139.879 248.521 143.003C249.948 146.044 254.34 146.992 254.887 150.462C255.03 151.333 254.45 152.625 254.414 153.715C253.406 157.596 253.201 161.846 250.766 165.301C249.057 167.724 248.062 170.568 245.454 172.417C244.182 173.456 242.629 174.081 240.994 174.213C237.997 174.335 235.049 174.593 232.2 175.717C227.981 177.404 223.644 178.826 219.396 180.435C218.317 180.849 217.253 181.126 216.325 182.254C214.99 183.926 212.705 182.801 210.869 182.852C205.599 183.01 200.434 182.03 195.24 181.15C194.486 181.069 193.761 180.805 193.127 180.379C190.26 178.125 187.24 176.103 183.908 174.589C181.379 173.443 178.915 171.943 176.87 170.291C173.554 167.63 170.468 164.356 169.552 159.812C169.46 159.318 169.757 158.77 169.874 158.201C168.889 158.163 168.319 158.195 168.337 159.374C168.367 163.56 167.993 167.76 169.81 171.758C170.739 173.692 171.214 175.814 171.196 177.956C171.184 180.003 175.542 180.36 175.703 182.586C175.932 185.359 176.844 185.981 179.495 187.699C180.761 188.513 182.457 189.1 183.082 190.169C187.555 192.213 188.859 195.517 193.763 196.372C199.805 197.45 204.068 202.154 210.104 203.037C212.59 203.408 215.035 204.321 217.47 204.315C220.578 204.262 223.597 204.615 226.578 205.224C229.489 205.814 232.423 204.748 235.29 205.574C235.563 205.672 235.959 205.814 236.136 205.706C237.887 204.41 240.099 205.452 241.838 204.6C245.762 202.691 249.895 202.551 254.144 202.611C259.597 202.717 265.069 200.619 269.853 197.694C272.097 196.33 274.777 195.751 277.266 194.825C278.543 194.361 279.822 193.962 280.563 192.616C282.175 189.745 285.486 189.003 287.807 187.018C291.008 184.25 294.392 181.746 297.168 178.519C298.495 177.004 300.404 176.024 301.783 174.534C305.748 170.303 308.856 165.373 311.984 160.501C312.468 159.754 312.861 158.996 313.488 158.285C315.63 155.749 315.902 152.574 315.703 149.351C315.679 148.986 315.767 148.932 315.457 148.671C312.239 146.105 309.56 142.465 305.013 142.359C303.33 142.355 301.69 141.774 300.36 140.71C297.034 137.964 292.933 136.884 289.282 134.849C289.145 134.767 288.993 134.646 288.865 134.649C282.473 134.687 277.906 130.304 272.706 127.623C264.586 123.433 262.661 122.363 256.98 120.912C251.842 119.593 244.855 117.64 239.66 116.935C232.787 116.005 218.254 121.899 211.218 122.479C205.364 120.673 201.858 143.651 196.045 143.324C195.208 143.277 190.247 159.543 193.323 135.722L196.558 133.102Z" fill="white"/>
</svg>
